<?xml version="1.0" encoding="UTF-8" standalone="no"?>
<svg
   xmlns:dc="http://purl.org/dc/elements/1.1/"
   xmlns:cc="http://creativecommons.org/ns#"
   xmlns:rdf="http://www.w3.org/1999/02/22-rdf-syntax-ns#"
   xmlns:svg="http://www.w3.org/2000/svg"
   xmlns="http://www.w3.org/2000/svg"
   xmlns:sodipodi="http://sodipodi.sourceforge.net/DTD/sodipodi-0.dtd"
   xmlns:inkscape="http://www.inkscape.org/namespaces/inkscape"
   version="1.1"
   id="svg2"
   xml:space="preserve"
   width="492"
   height="389.33334"
   viewBox="0 0 492 389.33334"
   sodipodi:docname="windboe.eps"><metadata
     id="metadata8"><rdf:RDF><cc:Work
         rdf:about=""><dc:format>image/svg+xml</dc:format><dc:type
           rdf:resource="http://purl.org/dc/dcmitype/StillImage" /></cc:Work></rdf:RDF></metadata><defs
     id="defs6" /><sodipodi:namedview
     pagecolor="#ffffff"
     bordercolor="#666666"
     borderopacity="1"
     objecttolerance="10"
     gridtolerance="10"
     guidetolerance="10"
     inkscape:pageopacity="0"
     inkscape:pageshadow="2"
     inkscape:window-width="640"
     inkscape:window-height="480"
     id="namedview4" /><g
     id="g10"
     inkscape:groupmode="layer"
     inkscape:label="ink_ext_XXXXXX"
     transform="matrix(1.3333333,0,0,-1.3333333,0,389.33333)"><g
       id="g12"
       transform="scale(0.1)"><path
         d="M -190,-30 H 4010 V 3120 H -190 Z"
         style="fill:#ffffff;fill-opacity:1;fill-rule:nonzero;stroke:none"
         id="path14" /><path
         d="M -190,-30 H 4010 V 3120 H -190 Z"
         style="fill:#ffffff;fill-opacity:1;fill-rule:nonzero;stroke:none"
         id="path16" /><path
         d="m 357.5,315 h 3255 v 2572.5 h -3255 z"
         style="fill:#ffffff;fill-opacity:1;fill-rule:nonzero;stroke:none"
         id="path18" /><path
         d="M 357.5,315 V 2887.5"
         style="fill:none;stroke:#dfdfdf;stroke-width:5.0025;stroke-linecap:butt;stroke-linejoin:round;stroke-miterlimit:10;stroke-dasharray:none;stroke-opacity:1"
         id="path20" /><path
         d="M 683,315 V 2887.5"
         style="fill:none;stroke:#dfdfdf;stroke-width:5.0025;stroke-linecap:butt;stroke-linejoin:round;stroke-miterlimit:10;stroke-dasharray:none;stroke-opacity:1"
         id="path22" /><path
         d="M 1008.5,315 V 2887.5"
         style="fill:none;stroke:#dfdfdf;stroke-width:5.0025;stroke-linecap:butt;stroke-linejoin:round;stroke-miterlimit:10;stroke-dasharray:none;stroke-opacity:1"
         id="path24" /><path
         d="M 1334,315 V 2887.5"
         style="fill:none;stroke:#dfdfdf;stroke-width:5.0025;stroke-linecap:butt;stroke-linejoin:round;stroke-miterlimit:10;stroke-dasharray:none;stroke-opacity:1"
         id="path26" /><path
         d="M 1659.5,315 V 2887.5"
         style="fill:none;stroke:#dfdfdf;stroke-width:5.0025;stroke-linecap:butt;stroke-linejoin:round;stroke-miterlimit:10;stroke-dasharray:none;stroke-opacity:1"
         id="path28" /><path
         d="M 1985,315 V 2887.5"
         style="fill:none;stroke:#dfdfdf;stroke-width:5.0025;stroke-linecap:butt;stroke-linejoin:round;stroke-miterlimit:10;stroke-dasharray:none;stroke-opacity:1"
         id="path30" /><path
         d="M 2310.5,315 V 2887.5"
         style="fill:none;stroke:#dfdfdf;stroke-width:5.0025;stroke-linecap:butt;stroke-linejoin:round;stroke-miterlimit:10;stroke-dasharray:none;stroke-opacity:1"
         id="path32" /><path
         d="M 2636,315 V 2887.5"
         style="fill:none;stroke:#dfdfdf;stroke-width:5.0025;stroke-linecap:butt;stroke-linejoin:round;stroke-miterlimit:10;stroke-dasharray:none;stroke-opacity:1"
         id="path34" /><path
         d="M 2961.5,315 V 2887.5"
         style="fill:none;stroke:#dfdfdf;stroke-width:5.0025;stroke-linecap:butt;stroke-linejoin:round;stroke-miterlimit:10;stroke-dasharray:none;stroke-opacity:1"
         id="path36" /><path
         d="M 3287,315 V 2887.5"
         style="fill:none;stroke:#dfdfdf;stroke-width:5.0025;stroke-linecap:butt;stroke-linejoin:round;stroke-miterlimit:10;stroke-dasharray:none;stroke-opacity:1"
         id="path38" /><path
         d="M 3612.5,315 V 2887.5"
         style="fill:none;stroke:#dfdfdf;stroke-width:5.0025;stroke-linecap:butt;stroke-linejoin:round;stroke-miterlimit:10;stroke-dasharray:none;stroke-opacity:1"
         id="path40" /><path
         d="M 3612.5,315 H 357.5"
         style="fill:none;stroke:#dfdfdf;stroke-width:5.0025;stroke-linecap:butt;stroke-linejoin:round;stroke-miterlimit:10;stroke-dasharray:none;stroke-opacity:1"
         id="path42" /><path
         d="M 3612.5,600.832 H 357.5"
         style="fill:none;stroke:#dfdfdf;stroke-width:5.0025;stroke-linecap:butt;stroke-linejoin:round;stroke-miterlimit:10;stroke-dasharray:none;stroke-opacity:1"
         id="path44" /><path
         d="M 3612.5,886.664 H 357.5"
         style="fill:none;stroke:#dfdfdf;stroke-width:5.0025;stroke-linecap:butt;stroke-linejoin:round;stroke-miterlimit:10;stroke-dasharray:none;stroke-opacity:1"
         id="path46" /><path
         d="M 3612.5,1172.5 H 357.5"
         style="fill:none;stroke:#dfdfdf;stroke-width:5.0025;stroke-linecap:butt;stroke-linejoin:round;stroke-miterlimit:10;stroke-dasharray:none;stroke-opacity:1"
         id="path48" /><path
         d="M 3612.5,1458.33 H 357.5"
         style="fill:none;stroke:#dfdfdf;stroke-width:5.0025;stroke-linecap:butt;stroke-linejoin:round;stroke-miterlimit:10;stroke-dasharray:none;stroke-opacity:1"
         id="path50" /><path
         d="M 3612.5,1744.17 H 357.5"
         style="fill:none;stroke:#dfdfdf;stroke-width:5.0025;stroke-linecap:butt;stroke-linejoin:round;stroke-miterlimit:10;stroke-dasharray:none;stroke-opacity:1"
         id="path52" /><path
         d="M 3612.5,2030 H 357.5"
         style="fill:none;stroke:#dfdfdf;stroke-width:5.0025;stroke-linecap:butt;stroke-linejoin:round;stroke-miterlimit:10;stroke-dasharray:none;stroke-opacity:1"
         id="path54" /><path
         d="M 3612.5,2315.84 H 357.5"
         style="fill:none;stroke:#dfdfdf;stroke-width:5.0025;stroke-linecap:butt;stroke-linejoin:round;stroke-miterlimit:10;stroke-dasharray:none;stroke-opacity:1"
         id="path56" /><path
         d="M 3612.5,2601.67 H 357.5"
         style="fill:none;stroke:#dfdfdf;stroke-width:5.0025;stroke-linecap:butt;stroke-linejoin:round;stroke-miterlimit:10;stroke-dasharray:none;stroke-opacity:1"
         id="path58" /><path
         d="M 3612.5,2887.5 H 357.5"
         style="fill:none;stroke:#dfdfdf;stroke-width:5.0025;stroke-linecap:butt;stroke-linejoin:round;stroke-miterlimit:10;stroke-dasharray:none;stroke-opacity:1"
         id="path60" /><path
         d="m 357.5,315 h 3255"
         style="fill:none;stroke:#262626;stroke-width:5.0025;stroke-linecap:square;stroke-linejoin:round;stroke-miterlimit:10;stroke-dasharray:none;stroke-opacity:1"
         id="path62" /><path
         d="m 357.5,2887.5 h 3255"
         style="fill:none;stroke:#262626;stroke-width:5.0025;stroke-linecap:square;stroke-linejoin:round;stroke-miterlimit:10;stroke-dasharray:none;stroke-opacity:1"
         id="path64" /><path
         d="m 357.5,315 v 32.551"
         style="fill:none;stroke:#262626;stroke-width:5.0025;stroke-linecap:square;stroke-linejoin:round;stroke-miterlimit:10;stroke-dasharray:none;stroke-opacity:1"
         id="path66" /><path
         d="m 683,315 v 32.551"
         style="fill:none;stroke:#262626;stroke-width:5.0025;stroke-linecap:square;stroke-linejoin:round;stroke-miterlimit:10;stroke-dasharray:none;stroke-opacity:1"
         id="path68" /><path
         d="m 1008.5,315 v 32.551"
         style="fill:none;stroke:#262626;stroke-width:5.0025;stroke-linecap:square;stroke-linejoin:round;stroke-miterlimit:10;stroke-dasharray:none;stroke-opacity:1"
         id="path70" /><path
         d="m 1334,315 v 32.551"
         style="fill:none;stroke:#262626;stroke-width:5.0025;stroke-linecap:square;stroke-linejoin:round;stroke-miterlimit:10;stroke-dasharray:none;stroke-opacity:1"
         id="path72" /><path
         d="m 1659.5,315 v 32.551"
         style="fill:none;stroke:#262626;stroke-width:5.0025;stroke-linecap:square;stroke-linejoin:round;stroke-miterlimit:10;stroke-dasharray:none;stroke-opacity:1"
         id="path74" /><path
         d="m 1985,315 v 32.551"
         style="fill:none;stroke:#262626;stroke-width:5.0025;stroke-linecap:square;stroke-linejoin:round;stroke-miterlimit:10;stroke-dasharray:none;stroke-opacity:1"
         id="path76" /><path
         d="m 2310.5,315 v 32.551"
         style="fill:none;stroke:#262626;stroke-width:5.0025;stroke-linecap:square;stroke-linejoin:round;stroke-miterlimit:10;stroke-dasharray:none;stroke-opacity:1"
         id="path78" /><path
         d="m 2636,315 v 32.551"
         style="fill:none;stroke:#262626;stroke-width:5.0025;stroke-linecap:square;stroke-linejoin:round;stroke-miterlimit:10;stroke-dasharray:none;stroke-opacity:1"
         id="path80" /><path
         d="m 2961.5,315 v 32.551"
         style="fill:none;stroke:#262626;stroke-width:5.0025;stroke-linecap:square;stroke-linejoin:round;stroke-miterlimit:10;stroke-dasharray:none;stroke-opacity:1"
         id="path82" /><path
         d="m 3287,315 v 32.551"
         style="fill:none;stroke:#262626;stroke-width:5.0025;stroke-linecap:square;stroke-linejoin:round;stroke-miterlimit:10;stroke-dasharray:none;stroke-opacity:1"
         id="path84" /><path
         d="m 3612.5,315 v 32.551"
         style="fill:none;stroke:#262626;stroke-width:5.0025;stroke-linecap:square;stroke-linejoin:round;stroke-miterlimit:10;stroke-dasharray:none;stroke-opacity:1"
         id="path86" /><path
         d="m 357.5,2887.5 v -32.55"
         style="fill:none;stroke:#262626;stroke-width:5.0025;stroke-linecap:square;stroke-linejoin:round;stroke-miterlimit:10;stroke-dasharray:none;stroke-opacity:1"
         id="path88" /><path
         d="m 683,2887.5 v -32.55"
         style="fill:none;stroke:#262626;stroke-width:5.0025;stroke-linecap:square;stroke-linejoin:round;stroke-miterlimit:10;stroke-dasharray:none;stroke-opacity:1"
         id="path90" /><path
         d="m 1008.5,2887.5 v -32.55"
         style="fill:none;stroke:#262626;stroke-width:5.0025;stroke-linecap:square;stroke-linejoin:round;stroke-miterlimit:10;stroke-dasharray:none;stroke-opacity:1"
         id="path92" /><path
         d="m 1334,2887.5 v -32.55"
         style="fill:none;stroke:#262626;stroke-width:5.0025;stroke-linecap:square;stroke-linejoin:round;stroke-miterlimit:10;stroke-dasharray:none;stroke-opacity:1"
         id="path94" /><path
         d="m 1659.5,2887.5 v -32.55"
         style="fill:none;stroke:#262626;stroke-width:5.0025;stroke-linecap:square;stroke-linejoin:round;stroke-miterlimit:10;stroke-dasharray:none;stroke-opacity:1"
         id="path96" /><path
         d="m 1985,2887.5 v -32.55"
         style="fill:none;stroke:#262626;stroke-width:5.0025;stroke-linecap:square;stroke-linejoin:round;stroke-miterlimit:10;stroke-dasharray:none;stroke-opacity:1"
         id="path98" /><path
         d="m 2310.5,2887.5 v -32.55"
         style="fill:none;stroke:#262626;stroke-width:5.0025;stroke-linecap:square;stroke-linejoin:round;stroke-miterlimit:10;stroke-dasharray:none;stroke-opacity:1"
         id="path100" /><path
         d="m 2636,2887.5 v -32.55"
         style="fill:none;stroke:#262626;stroke-width:5.0025;stroke-linecap:square;stroke-linejoin:round;stroke-miterlimit:10;stroke-dasharray:none;stroke-opacity:1"
         id="path102" /><path
         d="m 2961.5,2887.5 v -32.55"
         style="fill:none;stroke:#262626;stroke-width:5.0025;stroke-linecap:square;stroke-linejoin:round;stroke-miterlimit:10;stroke-dasharray:none;stroke-opacity:1"
         id="path104" /><path
         d="m 3287,2887.5 v -32.55"
         style="fill:none;stroke:#262626;stroke-width:5.0025;stroke-linecap:square;stroke-linejoin:round;stroke-miterlimit:10;stroke-dasharray:none;stroke-opacity:1"
         id="path106" /><path
         d="m 3612.5,2887.5 v -32.55"
         style="fill:none;stroke:#262626;stroke-width:5.0025;stroke-linecap:square;stroke-linejoin:round;stroke-miterlimit:10;stroke-dasharray:none;stroke-opacity:1"
         id="path108" /><g
         id="g110"
         transform="scale(10)"><text
           transform="matrix(1,0,0,-1,32.75,17)"
           style="font-variant:normal;font-weight:normal;font-size:9.99975px;font-family:Helvetica;-inkscape-font-specification:Helvetica;writing-mode:lr-tb;fill:#262626;fill-opacity:1;fill-rule:nonzero;stroke:none"
           id="text114"><tspan
             x="0 29.924952 35.484814 62.474937 68.034798 95.024925 100.58479 127.57491 133.13477 160.12489 165.68475 192.67488 198.23474 225.22487 230.78473 257.77484 263.33472 290.32483 295.8847 319.87482 325.43466 330.99454"
             y="0"
             sodipodi:role="line"
             id="tspan112">0102030405060708090100</tspan></text><text
           transform="matrix(1,0,0,-1,178.625,2.5)"
           style="font-variant:normal;font-weight:normal;font-size:11.0002px;font-family:Helvetica;-inkscape-font-specification:Helvetica;writing-mode:lr-tb;fill:#262626;fill-opacity:1;fill-rule:nonzero;stroke:none"
           id="text118"><tspan
             x="0 6.7211223 9.163167 18.326334 24.442444 27.5005 30.558556 36.058655"
             y="0"
             sodipodi:role="line"
             id="tspan116">Time [s]</tspan></text></g><path
         d="M 357.5,315 V 2887.5"
         style="fill:none;stroke:#262626;stroke-width:5.0025;stroke-linecap:square;stroke-linejoin:round;stroke-miterlimit:10;stroke-dasharray:none;stroke-opacity:1"
         id="path120" /><path
         d="M 3612.5,315 V 2887.5"
         style="fill:none;stroke:#262626;stroke-width:5.0025;stroke-linecap:square;stroke-linejoin:round;stroke-miterlimit:10;stroke-dasharray:none;stroke-opacity:1"
         id="path122" /><path
         d="m 357.5,315 h 32.551"
         style="fill:none;stroke:#262626;stroke-width:5.0025;stroke-linecap:square;stroke-linejoin:round;stroke-miterlimit:10;stroke-dasharray:none;stroke-opacity:1"
         id="path124" /><path
         d="m 357.5,600.832 h 32.551"
         style="fill:none;stroke:#262626;stroke-width:5.0025;stroke-linecap:square;stroke-linejoin:round;stroke-miterlimit:10;stroke-dasharray:none;stroke-opacity:1"
         id="path126" /><path
         d="m 357.5,886.664 h 32.551"
         style="fill:none;stroke:#262626;stroke-width:5.0025;stroke-linecap:square;stroke-linejoin:round;stroke-miterlimit:10;stroke-dasharray:none;stroke-opacity:1"
         id="path128" /><path
         d="m 357.5,1172.5 h 32.551"
         style="fill:none;stroke:#262626;stroke-width:5.0025;stroke-linecap:square;stroke-linejoin:round;stroke-miterlimit:10;stroke-dasharray:none;stroke-opacity:1"
         id="path130" /><path
         d="m 357.5,1458.33 h 32.551"
         style="fill:none;stroke:#262626;stroke-width:5.0025;stroke-linecap:square;stroke-linejoin:round;stroke-miterlimit:10;stroke-dasharray:none;stroke-opacity:1"
         id="path132" /><path
         d="m 357.5,1744.17 h 32.551"
         style="fill:none;stroke:#262626;stroke-width:5.0025;stroke-linecap:square;stroke-linejoin:round;stroke-miterlimit:10;stroke-dasharray:none;stroke-opacity:1"
         id="path134" /><path
         d="m 357.5,2030 h 32.551"
         style="fill:none;stroke:#262626;stroke-width:5.0025;stroke-linecap:square;stroke-linejoin:round;stroke-miterlimit:10;stroke-dasharray:none;stroke-opacity:1"
         id="path136" /><path
         d="m 357.5,2315.84 h 32.551"
         style="fill:none;stroke:#262626;stroke-width:5.0025;stroke-linecap:square;stroke-linejoin:round;stroke-miterlimit:10;stroke-dasharray:none;stroke-opacity:1"
         id="path138" /><path
         d="m 357.5,2601.67 h 32.551"
         style="fill:none;stroke:#262626;stroke-width:5.0025;stroke-linecap:square;stroke-linejoin:round;stroke-miterlimit:10;stroke-dasharray:none;stroke-opacity:1"
         id="path140" /><path
         d="m 357.5,2887.5 h 32.551"
         style="fill:none;stroke:#262626;stroke-width:5.0025;stroke-linecap:square;stroke-linejoin:round;stroke-miterlimit:10;stroke-dasharray:none;stroke-opacity:1"
         id="path142" /><path
         d="m 3612.5,315 h -32.55"
         style="fill:none;stroke:#262626;stroke-width:5.0025;stroke-linecap:square;stroke-linejoin:round;stroke-miterlimit:10;stroke-dasharray:none;stroke-opacity:1"
         id="path144" /><path
         d="m 3612.5,600.832 h -32.55"
         style="fill:none;stroke:#262626;stroke-width:5.0025;stroke-linecap:square;stroke-linejoin:round;stroke-miterlimit:10;stroke-dasharray:none;stroke-opacity:1"
         id="path146" /><path
         d="m 3612.5,886.664 h -32.55"
         style="fill:none;stroke:#262626;stroke-width:5.0025;stroke-linecap:square;stroke-linejoin:round;stroke-miterlimit:10;stroke-dasharray:none;stroke-opacity:1"
         id="path148" /><path
         d="m 3612.5,1172.5 h -32.55"
         style="fill:none;stroke:#262626;stroke-width:5.0025;stroke-linecap:square;stroke-linejoin:round;stroke-miterlimit:10;stroke-dasharray:none;stroke-opacity:1"
         id="path150" /><path
         d="m 3612.5,1458.33 h -32.55"
         style="fill:none;stroke:#262626;stroke-width:5.0025;stroke-linecap:square;stroke-linejoin:round;stroke-miterlimit:10;stroke-dasharray:none;stroke-opacity:1"
         id="path152" /><path
         d="m 3612.5,1744.17 h -32.55"
         style="fill:none;stroke:#262626;stroke-width:5.0025;stroke-linecap:square;stroke-linejoin:round;stroke-miterlimit:10;stroke-dasharray:none;stroke-opacity:1"
         id="path154" /><path
         d="m 3612.5,2030 h -32.55"
         style="fill:none;stroke:#262626;stroke-width:5.0025;stroke-linecap:square;stroke-linejoin:round;stroke-miterlimit:10;stroke-dasharray:none;stroke-opacity:1"
         id="path156" /><path
         d="m 3612.5,2315.84 h -32.55"
         style="fill:none;stroke:#262626;stroke-width:5.0025;stroke-linecap:square;stroke-linejoin:round;stroke-miterlimit:10;stroke-dasharray:none;stroke-opacity:1"
         id="path158" /><path
         d="m 3612.5,2601.67 h -32.55"
         style="fill:none;stroke:#262626;stroke-width:5.0025;stroke-linecap:square;stroke-linejoin:round;stroke-miterlimit:10;stroke-dasharray:none;stroke-opacity:1"
         id="path160" /><path
         d="m 3612.5,2887.5 h -32.55"
         style="fill:none;stroke:#262626;stroke-width:5.0025;stroke-linecap:square;stroke-linejoin:round;stroke-miterlimit:10;stroke-dasharray:none;stroke-opacity:1"
         id="path162" /><g
         id="g164"
         transform="scale(10)"><text
           transform="matrix(1,0,0,-1,14.5,27.375)"
           style="font-variant:normal;font-weight:normal;font-size:9.99975px;font-family:Helvetica;-inkscape-font-specification:Helvetica;writing-mode:lr-tb;fill:#262626;fill-opacity:1;fill-rule:nonzero;stroke:none"
           id="text186"><tspan
             x="0 3.3299167 8.8897781 11.669708"
             y="0"
             sodipodi:role="line"
             id="tspan166">-0.5</tspan><tspan
             x="11.25"
             y="-28.5832"
             id="tspan168">0</tspan><tspan
             x="3 8.5598612 11.339791"
             y="-57.166801"
             sodipodi:role="line"
             id="tspan170">0.5</tspan><tspan
             x="11.25"
             y="-85.75"
             id="tspan172">1</tspan><tspan
             x="3 8.5598612 11.339791"
             y="-114.3332"
             sodipodi:role="line"
             id="tspan174">1.5</tspan><tspan
             x="11.25"
             y="-142.91679"
             id="tspan176">2</tspan><tspan
             x="3 8.5598612 11.339791"
             y="-171.5"
             sodipodi:role="line"
             id="tspan178">2.5</tspan><tspan
             x="11.25"
             y="-200.08321"
             id="tspan180">3</tspan><tspan
             x="3 8.5598612 11.339791"
             y="-228.66679"
             sodipodi:role="line"
             id="tspan182">3.5</tspan><tspan
             x="11.25"
             y="-257.25"
             id="tspan184">4</tspan></text><text
           transform="matrix(0,1,1,0,8.5,118.875)"
           style="font-variant:normal;font-weight:normal;font-size:11.0002px;font-family:Helvetica;-inkscape-font-specification:Helvetica;writing-mode:lr-tb;fill:#262626;fill-opacity:1;fill-rule:nonzero;stroke:none"
           id="text190"><tspan
             x="0 7.9421444 10.384189 16.500299 22.616411 25.674467 31.174566 37.290676 43.406788 49.5229 55.639011 58.697067 61.755123 70.918289 73.976341 79.476448"
             y="0"
             sodipodi:role="line"
             id="tspan188">wind speed [m/s]</tspan></text></g><path
         d="m 357.5,600.832 v 0 0 0 0 h 0.008 0.031 0.133 0.277 v 0 0 h 0.031 v 0 0 h 0.032 0.027 0.063 0.117 0.234 0.465 0.785 0.879 0.172 0.871 1.387 1 2.359 0.895 3.254 3.253 3.258 2.114 1.14 1.215 1.262 0.777 1.215 1.613 0.43 1.207 1.348 0.699 1.222 1.59 0.442 1.207 1.367 0.68 1.222 1.582 0.453 1.207 1.372 0.675 1.223 1.574 0.457 1.207 1.375 0.672 1.223 1.578 0.457 1.207 1.379 0.668 1.223 1.574 0.457 1.207 1.383 0.668 1.222 1.574 0.457 1.208 1.378 0.668 1.223 1.574 0.457 1.211 1.379 0.668 1.223 1.574 0.457 1.207 1.379 0.668 1.223 1.574 0.461 1.207 1.379 0.668 1.222 1.575 0.457 1.207 1.382 0.664 1.223 1.578 0.457 1.207 1.379 0.668 1.223 1.574 0.457 1.207 1.383 0.668 1.219 1.578 0.457 1.207 1.379 0.668 1.222 1.575 0.457 1.207 1.382 0.668 1.223 1.574 0.457 1.207 1.379 0.668 1.223 1.574 0.457 1.211 1.379 0.668 1.223 1.574 0.457 1.207 1.379 0.668 1.222 1.575 0.461 1.207 1.379 0.667 1.223 1.574 0.457 1.207 1.383 0.664 1.223 1.578 0.457 1.207 1.379 0.668 v 0 0 h 0.668 0.668 1.336 0.582 2.91 0.348 1.371 1.41 0.473 1.093 1.282 0.879 1.328 1.672 0.253 1.125 1.125 1.008 1.297 1.5 0.457 1.149 1.312 0.793 1.277 1.672 0.309 1.16 1.199 0.895 1.265 1.59 0.399 1.172 1.289 0.793 1.254 1.64 0.363 1.184 1.254 0.816 1.246 1.633 0.375 1.188 1.281 0.785 1.238 1.637 0.383 1.191 1.289 0.774 1.238 1.625 0.391 1.195 1.305 0.758 1.226 1.629 0.398 1.2 1.304 0.75 1.231 1.621 0.402 1.203 1.313 0.742 1.231 1.617 0.406 1.199 1.328 0.727 1.23 1.614 0.414 1.199 1.336 0.719 1.222 1.614 0.418 1.199 1.336 0.718 1.223 1.613 0.422 1.207 1.336 0.711 1.223 1.605 0.426 1.207 1.344 0.707 1.219 1.605 0.43 1.207 1.344 0.703 1.222 1.598 0.434 1.207 1.351 0.699 1.223 1.598 0.433 1.207 1.352 0.695 1.223 1.598 0.433 1.211 1.356 0.691 1.223 1.589 0.442 1.207 1.359 0.688 1.222 1.59 0.446 1.207 1.355 0.691 1.223 1.59 0.441 1.207 1.368 0.679 1.223 1.59 0.445 1.207 1.363 0.684 v 0 0 l 0.684,0.488 0.679,1.461 1.043,4.059 0.848,4.933 0.91,6.821 0.938,8.609 0.937,10.102 0.473,5.617 1.047,13.605 0.976,14.012 0.953,14.578 0.278,4.395 1.191,19.531 1.043,17.805 1.02,17.55 1.074,18.489 1.242,21 0.937,15.304 1.036,16.016 v 0 0.004 0 0 0 0.008 0.008 0.023 l 0.007,0.039 v 0.074 l 0.016,0.157 0.016,0.308 0.043,0.606 0.086,1.222 0.164,2.418 0.328,4.739 0.652,9.089 0.91,11.586 1.055,11.95 0.977,9.398 0.914,7.297 0.308,2.086 1.059,5.75 0.922,3.203 0.882,1.394 0.317,0.098 v 0 0 0 0 0 0 0 h 0.008 v 0 h 0.015 0.016 0.035 0.074 0.153 0.293 0.597 1.188 0.953 1.91 1.344 1.355 1.188 0.711 1.125 1.508 0.621 1.304 1.653 0.3 1.145 1.18 0.929 1.282 1.574 0.398 1.156 1.274 0.824 1.262 1.648 0.348 1.16 1.238 0.856 1.254 1.609 0.391 1.172 1.281 0.805 1.242 1.629 0.382 1.176 1.285 0.793 1.239 1.621 0.394 1.188 1.297 0.773 1.231 1.625 0.398 1.184 1.304 0.766 1.23 1.621 0.407 1.191 1.313 0.75 1.23 1.613 0.411 1.191 1.32 0.742 1.223 1.621 0.414 1.199 1.329 0.726 1.223 1.613 0.418 1.199 1.336 0.723 1.219 1.613 0.422 1.199 1.344 0.711 1.222 1.614 0.418 1.207 1.336 0.714 1.223 1.602 0.429 1.207 1.344 0.703 1.223 1.605 0.426 1.211 1.348 0.699 1.23 1.598 0.426 1.207 1.351 0.696 1.23 1.598 0.43 1.214 1.348 0.691 1.231 1.598 0.425 1.215 1.352 0.687 1.231 1.597 0.43 1.215 1.348 0.691 1.23 1.606 0.418 1.215 1.351 0.692 1.226 1.606 0.422 1.214 1.356 0.684 1.23 1.605 0.418 1.223 1.352 0.683 1.239 1.593 0.422 1.223 1.351 0.68 1.238 1.606 0.414 1.223 1.347 0.684 1.238 1.602 0.414 1.222 1.352 0.68 1.238 1.605 0.414 1.223 1.348 0.683 1.239 1.613 0.402 1.231 1.343 0.684 1.234 1.614 0.406 1.23 1.34 0.684 1.246 1.605 0.403 1.23 1.344 0.684 1.242 1.613 0.398 1.231 1.34 0.683 1.246 1.614 0.394 1.231 1.344 0.683 1.242 1.621 0.391 1.23 1.336 0.688 1.246 1.621 0.391 1.234 1.328 0.692 1.254 1.609 0.391 1.238 1.328 0.687 1.254 1.621 0.383 1.235 1.328 0.691 1.254 1.617 0.383 1.238 1.328 0.692 1.25 1.629 0.375 1.238 1.324 0.692 1.254 1.625 0.375 1.238 1.328 0.691 1.25 1.629 0.375 1.246 1.321 0.687 1.262 1.625 0.367 1.246 1.321 0.691 1.258 1.629 0.367 1.246 1.32 0.688 1.261 1.633 0.364 1.242 1.312 0.699 1.258 1.637 0.359 1.246 1.31 0.7 1.26 1.64 0.36 1.24 1.31 0.7 1.26 1.64 0.35 1.25 1.31 0.7 1.26 1.64 0.36 1.25 1.3 0.7 1.27 1.63 0.35 1.26 1.3 0.7 1.27 1.63 0.36 1.25 1.3 0.7 1.27 1.64 0.35 1.25 1.3 0.7 1.27 1.64 0.34 1.26 1.3 0.7 1.27 1.64 0.35 1.25 1.3 0.7 1.27 1.65 0.33 1.26 1.3 0.7 1.27 1.65 0.34 1.25 1.3 0.7 1.27 1.65 0.33 1.27 1.29 0.7 1.28 1.64 0.34 1.25 1.3 0.7 1.28 1.64 0.33 1.27 1.29 0.7 1.27 1.66 0.33 1.26 1.29 0.7 1.28 1.64 0.34 1.25 1.3 0.7 1.27 1.66 0.32 1.27 1.29 0.7 1.28 1.64 0.34 1.25 1.3 0.7 1.27 1.66 0.32 1.27 1.29 0.7 1.28 1.64 0.34 1.25 1.3 0.7 1.27 1.66 0.32 1.27 1.29 0.7 1.27 1.66 0.33 1.26 1.29 0.7 1.28 1.65 0.32 1.27 1.29 0.7 1.27 1.66 0.32 1.27 1.29 0.7 1.28 1.65 0.33 1.26 1.29 0.7 1.28 1.65 0.32 1.27 1.29 0.7 1.28 1.65 0.33 1.26 1.29 0.7 1.28 1.65 0.32 1.27 1.29 0.7 1.28 1.65 0.33 1.26 1.29 0.7 1.28 1.66 0.31 1.27 1.29 0.7 1.28 1.66 0.32 1.26 1.29 0.7 1.28 1.66 0.32 1.26 1.29 0.7 1.28 1.66 0.31 1.27 1.29 0.7 1.28 1.66 0.32 1.22 1.25 0.78 1.22 1.59 0.44 1.22 1.37 0.67 1.22 1.57 0.47 1.21 1.38 0.66 1.21 1.57 0.47 1.21 1.4 0.65 1.22 1.56 0.48 1.2 1.4 0.65 1.21 1.57 0.47 1.21 1.41 0.64 1.22 1.55 0.49 1.2 1.4 0.65 1.21 1.57 0.48 1.2 1.41 0.64 1.22 1.56 0.47 1.21 1.4 0.65 1.21 1.57 0.48 1.2 1.4 0.65 1.22 1.56 0.47 1.21 1.4 0.65 1.22 1.56 0.48 1.2 1.4 0.65 1.21 1.57 0.47 1.21 1.4 0.65 1.22 1.56 0.48 1.2 1.4 0.65 1.21 1.57 0.48 1.2 1.4 0.65 1.22 1.57 0.46 1.21 1.39 0.66 1.21 1.58 0.47 1.2 1.39 0.66 1.22 1.57 0.46 1.21 1.39 0.66 1.22 1.57 0.47 1.2 1.39 0.66 1.21 1.58 0.46 1.21 1.39 0.66 1.22 1.57 0.47 1.2 1.39 0.66 1.21 1.58 0.46 1.21 1.39 0.66 1.22 1.57 0.47 1.2 1.39 0.66 1.22 1.57 0.47 1.2 1.39 0.66 1.22 1.57 0.46 1.21 1.39 0.66 1.22 1.57 0.47 1.2 1.38 0.67 1.22 1.57 0.46 1.21 1.38 0.67 1.22 1.58 0.46 1.2 1.38 0.67 1.22 1.58 0.45 1.21 1.38 0.67 1.22 1.58 0.46 1.2 1.38 0.67 1.22 1.58 0.45 1.21 1.38 0.67 1.22 1.58 0.46 1.2 1.38 0.67 1.22 1.58 0.46 1.2 1.38 0.67 1.22 1.58 0.45 1.21 1.38 0.67 1.22 1.58 0.46 1.2 1.38 0.67 1.22 1.58 0.45 1.21 1.38 0.67 1.22 1.58 0.46 1.2 1.38 0.67 1.22 1.58 0.45 1.21 1.38 0.67 1.22 1.58 0.46 1.2 1.38 0.67 1.22 1.58 0.46 1.2 1.38 0.67 1.22 1.58 0.45 1.21 1.38 0.67 1.22 1.58 0.46 1.2 1.38 0.67 1.22 1.58 0.45 1.21 1.38 0.67 1.22 1.58 0.46 1.2 1.38 0.67 1.22 1.58 0.45 1.21 1.38 0.67 1.22 1.58 0.46 1.2 1.38 0.67 1.22 1.58 0.45 1.21 1.38 0.67 1.22 1.58 0.46 1.2 1.38 0.67 1.22 1.58 0.46 1.2 1.38 0.67 1.22 1.58 0.45 1.21 1.38 0.67 1.22 1.58 0.46 1.2 1.38 0.67 1.22 1.58 0.45 1.21 1.38 0.67 1.22 1.58 0.46 1.2 1.38 0.67 1.22 1.58 0.45 1.21 1.38 0.67 1.22 1.58 0.46 1.2 1.38 0.67 1.22 1.58 0.45 1.21 1.38 0.67 1.22 1.58 0.46 1.2 1.38 0.67 1.22 1.58 0.46 1.2 1.38 0.67 1.22 1.58 0.45 1.21 1.38 0.67 1.22 1.58 0.46 1.2 1.38 0.67 1.22 1.58 0.45 1.21 1.38 0.67 1.22 1.58 0.46 1.2 1.38 0.67 1.22 1.58 0.45 1.21 1.38 0.67 1.22 1.58 0.46 1.2 1.38 0.67 1.22 1.58 0.45 1.21 1.38 0.67 1.22 1.58 0.45 1.21 1.38 0.67 1.22 1.58 0.46 1.2 1.38 0.67 1.22 1.58 0.45 1.21 1.38 0.67 1.22 1.58 0.46 1.2 1.38 0.67 1.22 1.58 0.45 1.21 1.38 0.67 1.22 1.58 0.46 1.2 1.38 0.67 1.22 1.58 0.45 1.21 1.38 0.67 1.22 1.58 0.46 1.2 1.38 0.67 1.22 1.58 0.46 1.2 1.38 0.67 1.22 1.58 0.45 1.21 1.38 0.67 1.22 1.58 0.46 1.2 1.38 0.67 1.22 1.58 0.45 1.21 1.38 0.67 1.22 1.58 0.46 1.2 1.38 0.67 1.22 1.58 0.45 1.21 1.38 0.67 1.22 1.58 0.46 1.2 1.38 0.67 1.22 1.58 0.45 1.21 1.38 0.67 1.22 1.58 0.46 1.2 1.38 0.67 1.22 1.58 0.46 1.2 1.38 0.67 1.22 1.58 0.45 1.21 1.38 0.67 1.22 1.58 0.46 1.2 1.38 0.67 1.22 1.58 0.45 1.21 1.38 0.67 1.22 1.58 0.46 1.2 1.38 0.67 1.22 1.58 0.45 1.21 1.38 0.67 1.22 1.58 0.46 1.2 1.38 0.67 1.22 1.58 0.46 1.2 1.38 0.67 1.22 1.58 0.45 1.21 1.38 0.67 1.22 1.58 0.46 1.2 1.38 0.67 1.22 1.58 0.45 1.21 1.38 0.67 1.22 1.58 0.46 1.2 1.38 0.67 1.22 1.58 0.45 1.21 1.38 0.67 1.22 1.58 0.46 1.2 1.38 0.67 1.22 1.58 0.45 1.21 1.38 0.67 1.22 1.58 0.46 1.2 1.38 0.67 1.22 1.58 0.46 1.2 1.38 0.67 1.22 1.58 0.45 1.21 1.38 0.67 1.22 1.58 0.46 1.2 1.38 0.67 1.22 1.58 0.45 1.21 1.38 0.67 1.22 1.58 0.46 1.2 1.38 0.67 1.22 1.58 0.45 1.21 1.38 0.67 1.22 1.58 0.46 1.2 1.38 0.67 1.22 1.58 0.45 1.21 1.38 0.67 1.22 1.58 0.46 1.2 1.38 0.67 1.22 1.58 0.46 1.2 1.38 0.67 1.22 1.58 0.45 1.21 1.38 0.67 1.22 1.58 0.46 1.2 1.38 0.67 1.22 1.58 0.45 1.21 1.38 0.67 1.22 1.58 0.46 1.2 1.38 0.67 1.22 1.58 0.45 1.21 1.38 0.67 1.22 1.58 0.46 1.2 1.38 0.67 1.22 1.58 0.46 1.2 1.38 0.67 1.22 1.58 0.45 1.21 1.38 0.67 1.22 1.58 0.46 1.2 1.38 0.67 1.22 1.58 0.45 1.21 1.38 0.67 1.22 1.58 0.46 1.2 1.38 0.67 1.22 1.58 0.45 1.21 1.38 0.67 1.22 1.58 0.46 1.2 1.38 0.67 1.22 1.58 0.45 1.21 1.38 0.67 1.22 1.58 0.46 1.2 1.38 0.67 1.22 1.58 0.46 1.2 1.38 0.67 1.22 1.58 0.45 1.21 1.38 0.67 1.22 1.58 0.46 1.2 1.38 0.67 1.22 1.58 0.45 1.21 1.38 0.67 1.22 1.58 0.46 1.2 1.38 0.67 1.22 1.58 0.45 1.21 1.38 0.67 1.22 1.58 0.46 1.2 1.38 0.67 1.22 1.58 0.45 1.21 1.38 0.67 1.22 1.58 0.46 1.2 1.38 0.67 1.22 1.58 0.46 1.2 1.38 0.67 1.22 1.58 0.45 1.21 1.38 0.67 1.22 1.58 0.46 1.2 1.38 0.67 1.22 1.58 0.45 1.21 1.38 0.67 1.22 1.58 0.46 1.2 1.38 0.67 1.22 1.58 0.45 1.21 1.38 0.67 1.22 1.58 0.46 1.2 1.38 0.67 1.22 1.58 0.46 1.2 1.38 0.67 1.22 1.58 0.45 1.21 1.38 0.67 1.22 1.58 0.46 1.2 1.38 0.67 1.22 1.58 0.45 1.21 1.38 0.67 1.22 1.58 0.46 1.2 1.38 0.67 1.22 1.58 0.45 1.21 1.38 0.67 1.22 1.58 0.46 1.2 1.38 0.67 1.22 1.58 0.45 1.21 1.38 0.67 1.22 1.58 0.46 1.2 1.38 0.67 1.22 1.58 0.46 1.2 1.38 0.67 1.22 1.58 0.45 1.21 1.38 0.67 1.22 1.58 0.46 1.2 1.38 0.67 1.22 1.58 0.45 1.21 1.38 0.67 1.22 1.58 0.46 1.2 1.38 0.67 1.22 1.58 0.45 1.21 1.38 0.67 1.22 1.58 0.46 1.2 1.38 0.67 1.22 1.58 0.45 1.21 1.38 0.67 1.22 1.58 0.46 1.2 1.38 0.67 1.22 1.58 0.46 1.2 1.38 0.67 1.22 1.58 0.45 1.21 1.38 0.67 1.22 1.58 0.46 1.2 1.38 0.67 1.22 1.58 0.45 1.21 1.38 0.67 1.22 1.58 0.46 1.2 1.38 0.67 1.22 1.58 0.45 1.21 1.38 0.67 1.22 1.58 0.46 1.2 1.38 0.67 1.22 1.58 0.45 1.21 1.38 0.67 1.22 1.58 0.45 1.21 1.38 0.67 1.22 1.58 0.46 1.2 1.38 0.67 1.22 1.58 0.45 1.21 1.38 0.67 1.22 1.58 0.46 1.2 1.38 0.67 v 0 0 l 0.67,-0.441 0.67,-1.344 1.33,-5.301 0.58,-3.39 1.23,-9.165 1.27,-12.136 0.76,-8.602 1.13,-14.211 1.3,-18.285 0.83,-12.445 1.19,-18.914 1.38,-23.032 0.68,-11.437 1.24,-20.902 1.55,-25.664 0.46,-7.434 1.41,-21.473 0.01,-0.195 v 0 0 0 -0.008 0 0 -0.008 -0.015 -0.028 l 0.01,-0.054 0.01,-0.114 0.01,-0.214 0.03,-0.446 0.06,-0.875 0.12,-1.742 0.24,-3.441 0.48,-6.684 0.88,-11.406 1.61,-18.164 0.95,-8.973 0.7,-5.414 1.26,-7.719 1.29,-4.722 0.7,-1.184 0.5,-0.25 v 0 0 0 0 0 0 0 0 0 0 h 0.01 0.02 0.02 0.07 0.12 0.24 0.49 0.97 0.82 2.75 0.5 2.18 1.07 1.27 1.43 0.56 1.3 1.56 0.4 1.26 1.37 0.62 1.3 1.62 0.33 1.27 1.32 0.67 1.3 1.65 0.31 1.27 1.28 0.7 1.3 1.66 0.29 1.28 1.27 0.71 1.29 1.68 0.29 1.27 1.27 0.71 1.29 1.67 0.29 1.28 1.27 0.71 1.29 1.67 0.3 1.27 1.27 0.71 1.29 1.67 0.3 1.27 1.27 0.71 1.28 1.67 0.3 1.28 1.28 0.7 1.28 1.67 0.31 1.26 1.29 0.7 1.28 1.67 0.3 1.27 1.28 0.71 1.28 1.66 0.32 1.25 1.27 0.73 1.18 1.58 0.49 1.24 1.44 0.58 1.19 1.49 0.58 1.23 1.51 0.51 1.2 1.42 0.64 1.22 1.56 0.47 1.2 1.39 0.66 1.23 1.58 0.45 1.21 1.37 0.68 1.22 1.59 0.44 1.21 1.36 0.68 1.23 1.59 0.44 1.21 1.36 0.69 1.22 1.59 0.44 1.21 1.36 0.68 1.23 1.59 0.44 1.21 1.36 0.69 1.22 1.59 0.44 1.21 1.36 0.68 1.23 1.58 0.45 1.21 1.36 0.69 1.22 1.58 0.45 1.21 1.36 0.69 1.22 1.58 0.45 1.21 1.37 0.67 1.23 1.58 0.45 1.21 1.37 0.68 1.22 1.58 0.45 1.21 1.37 0.67 1.23 1.58 0.45 1.21 1.37 0.68 1.22 1.58 0.45 1.21 1.37 0.67 1.23 1.58 0.45 1.21 1.37 0.68 1.22 1.58 0.45 1.21 1.37 0.67 1.23 1.57 0.46 1.21 1.37 0.68 1.22 1.57 0.46 1.21 1.37 0.68 1.22 1.57 0.46 1.21 1.37 0.67 1.23 1.57 0.46 1.21 1.37 0.68 1.22 1.57 0.46 1.21 1.38 0.66 1.23 1.57 0.46 1.21 1.38 0.67 1.22 1.57 0.46 1.21 1.38 0.66 1.23 1.57 0.46 1.21 1.38 0.67 1.22 1.57 0.46 1.21 1.38 0.67 1.22 1.57 0.46 1.21 1.38 0.66 1.23 1.57 0.46 1.21 1.38 0.67 1.22 1.57 0.46 1.21 1.38 0.66 1.23 1.57 0.46 1.21 1.38 0.67 1.22 1.57 0.46 1.21 1.38 0.66 1.23 1.57 0.46 1.21 1.38 0.67 1.22 1.57 0.46 1.21 1.38 0.66 1.23 1.57 0.46 1.21 1.38 0.67 1.22 1.57 0.46 1.21 1.38 0.67 1.22 1.57 0.46 1.21 1.38 0.66 1.23 1.57 0.46 1.21 1.38 0.67 1.22 1.57 0.46 1.21 1.38 0.66 1.23 1.57 0.46 1.21 1.38 0.67 1.22 1.57 0.46 1.21 1.38 0.66 1.23 1.57 0.46 1.21 1.38 0.67 1.22 1.57 0.46 1.21 1.38 0.66 1.23 1.57 0.46 1.21 1.38 0.67 1.22 1.57 0.46 1.21 1.38 0.67 1.22 1.57 0.46 1.21 1.38 0.66 1.23 1.57 0.46 1.21 1.38 0.67 1.22 1.57 0.46 1.21 1.38 0.66 1.23 1.57 0.46 1.21 1.38 0.67 1.22 1.57 0.46 1.21 1.38 0.66 1.23 1.57 0.46 1.21 1.38 0.67 1.22 1.57 0.46 1.21 1.38 0.67 1.22 1.57 0.46 1.21 1.38 0.66 1.23 1.57 0.46 1.21 1.38 0.67 1.22 1.57 0.46 1.21 1.38 0.66 1.23 1.57 0.46 1.21 1.38 0.67 1.22 1.57 0.46 1.21 1.38 0.66 1.23 1.57 0.46 1.21 1.38 0.67 1.22 1.57 0.46 1.21 1.38 0.66 1.23 1.57 0.46 1.21 1.38 0.67 1.22 1.57 0.46 1.21 1.38 0.67 1.22 1.57 0.46 1.21 1.38 0.66 1.23 1.57 0.46 1.21 1.38 0.67 1.22 1.57 0.46 1.21 1.38 0.66 1.23 1.57 0.46 1.21 1.38 0.67 1.22 1.57 0.46 1.21 1.38 0.66 1.23 1.57 0.46 1.21 1.38 0.67 1.22 1.57 0.46 1.21 1.38 0.66 1.23 1.57 0.46 1.21 1.38 0.67 1.22 1.57 0.46 1.21 1.38 0.67 1.22 1.57 0.46 1.21 1.38 0.66 1.23 1.57 0.46 1.21 1.38 0.67 1.22 1.57 0.46 1.21 1.38 0.66 1.23 1.57 0.46 1.21 1.38 0.67 1.22 1.57 0.46 1.21 1.38 0.66 1.23 1.57 0.46 1.21 1.38 0.67 1.22 1.57 0.46 1.21 1.38 0.67 1.22 1.57 0.46 1.21 1.38 0.66 1.23 1.57 0.46 1.21 1.38 0.67 1.22 1.57 0.46 1.21 1.38 0.66 1.23 1.57 0.46 1.21 1.38 0.67 1.22 1.57 0.46 1.21 1.38 0.66 1.23 1.57 0.46 1.21 1.38 0.67 1.22 1.57 0.46 1.21 1.38 0.66 1.23 1.57 0.46 1.21 1.38 0.67 1.22 1.57 0.46 1.21 1.38 0.67 1.22 1.57 0.46 1.21 1.38 0.66 1.23 1.57 0.46 1.21 1.38 0.67 1.22 1.57 0.46 1.21 1.38 0.66 1.23 1.57 0.46 1.21 1.38 0.67 1.22 1.57 0.46 1.21 1.38 0.66 1.23 1.57 0.46 1.21 1.38 0.67 1.22 1.57 0.46 1.21 1.38 0.66 1.23 1.57 0.46 1.21 1.38 0.67 1.22 1.57 0.46 1.21 1.38 0.67 1.22 1.57 0.46 1.21 1.38 0.66 1.23 1.57 0.46 1.21 1.38 0.67 1.22 1.57 0.46 1.21 1.38 0.66 1.23 1.57 0.46 1.21 1.38 0.67 1.22 1.57 0.46 1.21 1.38 0.66 1.23 1.57 0.46 1.21 1.38 0.67 1.22 1.57 0.46 1.21 1.38 0.66 1.23 1.57 0.46 1.21 1.38 0.66 1.23 1.57 0.46 1.21 1.38 0.67 1.22 1.57 0.46 1.21 1.38 0.66 1.23 1.57 0.46 1.21 1.38 0.67 1.22 1.57 0.46 1.21 1.38 0.66 1.23 1.57 0.46 1.21 1.38 0.67 1.22 1.57 0.46 1.21 1.38 0.66 1.23 1.57 0.46 1.21 1.38 0.67 1.22 1.57 0.46 1.21 1.38 0.67 1.22 1.57 0.46 1.21 1.38 0.66 1.23 1.57 0.46 1.21 1.38 0.67 1.22 1.57 0.46 1.21 1.38 0.66 1.23 1.57 0.46 1.21 1.38 0.67 1.22 1.57 0.46 1.21 1.38 0.66 1.23 1.57 0.46 1.21 1.38 0.67 1.22 1.57 0.46 1.21 1.38 0.66 1.23 1.57 0.46 1.21 1.38 0.67 1.22 1.57 0.46 1.21 1.38 0.67 1.22 1.57 0.46 1.21 1.38 0.66 1.23 1.57 0.46 1.21 1.38 0.67 1.22 1.57 0.46 1.21 1.38 0.66 1.23 1.57 0.46 1.21 1.38 0.67 1.22 1.57 0.46 1.21 1.38 0.66 1.23 1.57 0.46 1.21 1.38 0.67 1.22 1.57 0.46 1.21 1.38 0.67 1.22 1.57 0.46 1.21 1.38 0.66 1.23 1.57 0.46 1.21 1.38 0.67 1.22 1.57 0.46 1.21 1.38 0.66 1.23 1.57 0.46 1.21 1.38 0.67 1.22 1.57 0.46 1.21 1.38 0.66 1.23 1.57 0.46 1.21 1.38 0.67 1.22 1.57 0.46 1.21 1.38 0.66 1.23 1.57 0.46 1.21 1.38 0.67 1.22 1.57 0.46 1.21 1.38 0.67 1.22 1.57 0.46 1.21 1.38 0.66 1.23 1.57 0.46 1.21 1.38 0.67 1.22 1.57 0.46 1.21 1.38 0.66 1.23 1.57 0.46 1.21 1.38 0.67 1.22 1.57 0.46 1.21 1.38 0.66 1.23 1.57 0.46 1.21 1.38 0.67 1.22 1.57 0.46 1.21 1.38 0.66 1.23 1.57 0.46 1.21 1.38 0.67 1.22 1.57 0.46 1.21 1.38 0.67 1.22 1.57 0.46 1.21 1.38 0.66 1.23 1.57 0.46 1.21 1.38 0.67 1.22 1.57 0.46 1.21 1.38 0.66 1.23 1.57 0.46 1.21 1.38 0.67 1.22 1.57 0.46 1.21 1.38 0.66 1.23 1.57 0.46 1.21 1.38 0.67 1.22 1.57 0.46 1.21 1.38 0.67 1.22 1.57 0.46 1.21 1.38 0.66 1.23 1.57 0.46 1.21 1.38 0.67 1.22 1.57 0.46 1.21 1.38 0.66 1.23 1.57 0.46 1.21 1.38 0.67 1.22 1.57 0.46 1.21 1.38 0.66 1.23 1.57 0.46 1.21 1.38 0.67 1.22 1.57 0.46 1.21 1.38 0.66 1.23 1.57 0.46 1.21 1.38 0.67 1.22 1.57 0.46 1.21 1.38 0.67 1.22 1.57 0.46 1.21 1.38 0.66 1.23 1.57 0.46 1.21 1.38 0.67 1.22 1.57 0.46 1.21 1.38 0.66 1.23 1.57 0.46 1.21 1.38 0.67 1.22 1.57 0.46 1.21 1.38 0.66 1.23 1.57 0.46 1.21 1.38 0.67 1.22 1.57 0.46 1.21 1.38 0.66 1.23 1.57 0.46 1.21 1.38 0.67 1.22 1.57 0.46 1.21 1.38 0.67 1.22 1.57 0.46 1.21 1.38 0.66 1.23 1.57 0.46 1.21 1.38 0.67 1.22 1.57 0.46 1.21 1.38 0.66 1.23 1.57 0.46 1.21 1.38 0.67 1.22 1.57 0.46 1.21 1.38 0.66 1.23 1.57 0.46 1.21 1.38 0.67 1.22 1.57 0.46 1.21 1.38 0.67 1.22 1.57 0.46 1.21 1.38 0.66 1.23 1.57 0.46 1.21 1.38 0.67 1.22 1.57 0.46 1.21 1.38 0.66 1.23 1.57 0.46 1.21 1.38 0.67 1.22 1.57 0.46"
         style="fill:none;stroke:#000000;stroke-width:5.0025;stroke-linecap:butt;stroke-linejoin:bevel;stroke-miterlimit:10;stroke-dasharray:7.5, 22.5;stroke-dashoffset:0;stroke-opacity:1"
         id="path192" /><path
         d="m 357.5,600.832 v 0 0 0 0 h 0.008 0.031 0.133 0.277 v 0 0 h 0.031 v 0 0 h 0.032 0.027 0.063 0.117 0.234 0.465 0.785 0.879 0.172 0.871 1.387 1 2.359 0.895 3.254 3.253 3.258 2.114 1.14 1.215 1.262 0.777 1.215 1.613 0.43 1.207 1.348 0.699 1.222 1.59 0.442 1.207 1.367 0.68 1.222 1.582 0.453 1.207 1.372 0.675 1.223 1.574 0.457 1.207 1.375 0.672 1.223 1.578 0.457 1.207 1.379 0.668 1.223 1.574 0.457 1.207 1.383 0.668 1.222 1.574 0.457 1.208 1.378 0.668 1.223 1.574 0.457 1.211 1.379 0.668 1.223 1.574 0.457 1.207 1.379 0.668 1.223 1.574 0.461 1.207 1.379 0.668 1.222 1.575 0.457 1.207 1.382 0.664 1.223 1.578 0.457 1.207 1.379 0.668 1.223 1.574 0.457 1.207 1.383 0.668 1.219 1.578 0.457 1.207 1.379 0.668 1.222 1.575 0.457 1.207 1.382 0.668 1.223 1.574 0.457 1.207 1.379 0.668 1.223 1.574 0.457 1.211 1.379 0.668 1.223 1.574 0.457 1.207 1.379 0.668 1.222 1.575 0.461 1.207 1.379 0.667 1.223 1.574 0.457 1.207 1.383 0.664 1.223 1.578 0.457 1.207 1.379 0.668 v 0 0 h 0.668 0.668 1.336 0.582 2.91 0.348 1.371 1.41 0.473 1.093 1.282 0.879 1.328 1.672 0.253 1.125 1.125 1.008 1.297 1.5 0.457 1.149 1.312 0.793 1.277 1.672 0.309 1.16 1.199 0.895 1.265 1.59 0.399 1.172 1.289 0.793 1.254 1.64 0.363 1.184 1.254 0.816 1.246 1.633 0.375 1.188 1.281 0.785 1.238 1.637 0.383 1.191 1.289 0.774 1.238 1.625 0.391 1.195 1.305 0.758 1.226 1.629 0.398 1.2 1.304 0.75 1.231 1.621 0.402 1.203 1.313 0.742 1.231 1.617 0.406 1.199 1.328 0.727 1.23 1.614 0.414 1.199 1.336 0.719 1.222 1.614 0.418 1.199 1.336 0.718 1.223 1.613 0.422 1.207 1.336 0.711 1.223 1.605 0.426 1.207 1.344 0.707 1.219 1.605 0.43 1.207 1.344 0.703 1.222 1.598 0.434 1.207 1.351 0.699 1.223 1.598 0.433 1.207 1.352 0.695 1.223 1.598 0.433 1.211 1.356 0.691 1.223 1.589 0.442 1.207 1.359 0.688 1.222 1.59 0.446 1.207 1.355 0.691 1.223 1.59 0.441 1.207 1.368 0.679 1.223 1.59 0.445 1.207 1.363 0.684 v 0 0 l 0.684,3.414 0.679,10.207 1.043,28.426 0.848,34.543 0.91,47.73 0.938,60.27 0.937,70.734 0.473,39.305 1.047,95.223 0.976,98.096 0.953,102.06 0.278,30.72 1.191,136.74 1.043,124.61 1.02,122.89 1.074,129.39 1.242,146.99 0.937,107.16 1.036,112.12 v 0 0.02 0 0.01 0.02 0.04 0.06 0.14 l 0.007,0.26 v 0.54 l 0.016,1.07 0.016,2.15 0.043,4.29 0.086,8.53 0.164,16.91 0.328,33.2 0.652,63.64 0.91,81.11 1.055,83.59 0.977,65.83 0.914,51.06 0.308,14.59 1.059,40.28 0.922,22.39 0.882,9.76 0.317,0.72 v 0 0 0 0 0 0 0 h 0.008 v 0 h 0.015 0.016 0.035 0.074 0.153 0.293 0.597 1.188 0.953 1.91 1.344 1.355 1.188 0.711 1.125 1.508 0.621 1.304 1.653 0.3 1.145 1.18 0.929 1.282 1.574 0.398 1.156 1.274 0.824 1.262 1.648 0.348 1.16 1.238 0.856 1.254 1.609 0.391 1.172 1.281 0.805 1.242 1.629 0.382 1.176 1.285 0.793 1.239 1.621 0.394 1.188 1.297 0.773 1.231 1.625 0.398 1.184 1.304 0.766 1.23 1.621 0.407 1.191 1.313 0.75 1.23 1.613 0.411 1.191 1.32 0.742 1.223 1.621 0.414 1.199 1.329 0.726 1.223 1.613 0.418 1.199 1.336 0.723 1.219 1.613 0.422 1.199 1.344 0.711 1.222 1.614 0.418 1.207 1.336 0.714 1.223 1.602 0.429 1.207 1.344 0.703 1.223 1.605 0.426 1.211 1.348 0.699 1.23 1.598 0.426 1.207 1.351 0.696 1.23 1.598 0.43 1.214 1.348 0.691 1.231 1.598 0.425 1.215 1.352 0.687 1.231 1.597 0.43 1.215 1.348 0.691 1.23 1.606 0.418 1.215 1.351 0.692 1.226 1.606 0.422 1.214 1.356 0.684 1.23 1.605 0.418 1.223 1.352 0.683 1.239 1.593 0.422 1.223 1.351 0.68 1.238 1.606 0.414 1.223 1.347 0.684 1.238 1.602 0.414 1.222 1.352 0.68 1.238 1.605 0.414 1.223 1.348 0.683 1.239 1.613 0.402 1.231 1.343 0.684 1.234 1.614 0.406 1.23 1.34 0.684 1.246 1.605 0.403 1.23 1.344 0.684 1.242 1.613 0.398 1.231 1.34 0.683 1.246 1.614 0.394 1.231 1.344 0.683 1.242 1.621 0.391 1.23 1.336 0.688 1.246 1.621 0.391 1.234 1.328 0.692 1.254 1.609 0.391 1.238 1.328 0.687 1.254 1.621 0.383 1.235 1.328 0.691 1.254 1.617 0.383 1.238 1.328 0.692 1.25 1.629 0.375 1.238 1.324 0.692 1.254 1.625 0.375 1.238 1.328 0.691 1.25 1.629 0.375 1.246 1.321 0.687 1.262 1.625 0.367 1.246 1.321 0.691 1.258 1.629 0.367 1.246 1.32 0.688 1.261 1.633 0.364 1.242 1.312 0.699 1.258 1.637 0.359 1.246 1.31 0.7 1.26 1.64 0.36 1.24 1.31 0.7 1.26 1.64 0.35 1.25 1.31 0.7 1.26 1.64 0.36 1.25 1.3 0.7 1.27 1.63 0.35 1.26 1.3 0.7 1.27 1.63 0.36 1.25 1.3 0.7 1.27 1.64 0.35 1.25 1.3 0.7 1.27 1.64 0.34 1.26 1.3 0.7 1.27 1.64 0.35 1.25 1.3 0.7 1.27 1.65 0.33 1.26 1.3 0.7 1.27 1.65 0.34 1.25 1.3 0.7 1.27 1.65 0.33 1.27 1.29 0.7 1.28 1.64 0.34 1.25 1.3 0.7 1.28 1.64 0.33 1.27 1.29 0.7 1.27 1.66 0.33 1.26 1.29 0.7 1.28 1.64 0.34 1.25 1.3 0.7 1.27 1.66 0.32 1.27 1.29 0.7 1.28 1.64 0.34 1.25 1.3 0.7 1.27 1.66 0.32 1.27 1.29 0.7 1.28 1.64 0.34 1.25 1.3 0.7 1.27 1.66 0.32 1.27 1.29 0.7 1.27 1.66 0.33 1.26 1.29 0.7 1.28 1.65 0.32 1.27 1.29 0.7 1.27 1.66 0.32 1.27 1.29 0.7 1.28 1.65 0.33 1.26 1.29 0.7 1.28 1.65 0.32 1.27 1.29 0.7 1.28 1.65 0.33 1.26 1.29 0.7 1.28 1.65 0.32 1.27 1.29 0.7 1.28 1.65 0.33 1.26 1.29 0.7 1.28 1.66 0.31 1.27 1.29 0.7 1.28 1.66 0.32 1.26 1.29 0.7 1.28 1.66 0.32 1.26 1.29 0.7 1.28 1.66 0.31 1.27 1.29 0.7 1.28 1.66 0.32 1.22 1.25 0.78 1.22 1.59 0.44 1.22 1.37 0.67 1.22 1.57 0.47 1.21 1.38 0.66 1.21 1.57 0.47 1.21 1.4 0.65 1.22 1.56 0.48 1.2 1.4 0.65 1.21 1.57 0.47 1.21 1.41 0.64 1.22 1.55 0.49 1.2 1.4 0.65 1.21 1.57 0.48 1.2 1.41 0.64 1.22 1.56 0.47 1.21 1.4 0.65 1.21 1.57 0.48 1.2 1.4 0.65 1.22 1.56 0.47 1.21 1.4 0.65 1.22 1.56 0.48 1.2 1.4 0.65 1.21 1.57 0.47 1.21 1.4 0.65 1.22 1.56 0.48 1.2 1.4 0.65 1.21 1.57 0.48 1.2 1.4 0.65 1.22 1.57 0.46 1.21 1.39 0.66 1.21 1.58 0.47 1.2 1.39 0.66 1.22 1.57 0.46 1.21 1.39 0.66 1.22 1.57 0.47 1.2 1.39 0.66 1.21 1.58 0.46 1.21 1.39 0.66 1.22 1.57 0.47 1.2 1.39 0.66 1.21 1.58 0.46 1.21 1.39 0.66 1.22 1.57 0.47 1.2 1.39 0.66 1.22 1.57 0.47 1.2 1.39 0.66 1.22 1.57 0.46 1.21 1.39 0.66 1.22 1.57 0.47 1.2 1.38 0.67 1.22 1.57 0.46 1.21 1.38 0.67 1.22 1.58 0.46 1.2 1.38 0.67 1.22 1.58 0.45 1.21 1.38 0.67 1.22 1.58 0.46 1.2 1.38 0.67 1.22 1.58 0.45 1.21 1.38 0.67 1.22 1.58 0.46 1.2 1.38 0.67 1.22 1.58 0.46 1.2 1.38 0.67 1.22 1.58 0.45 1.21 1.38 0.67 1.22 1.58 0.46 1.2 1.38 0.67 1.22 1.58 0.45 1.21 1.38 0.67 1.22 1.58 0.46 1.2 1.38 0.67 1.22 1.58 0.45 1.21 1.38 0.67 1.22 1.58 0.46 1.2 1.38 0.67 1.22 1.58 0.46 1.2 1.38 0.67 1.22 1.58 0.45 1.21 1.38 0.67 1.22 1.58 0.46 1.2 1.38 0.67 1.22 1.58 0.45 1.21 1.38 0.67 1.22 1.58 0.46 1.2 1.38 0.67 1.22 1.58 0.45 1.21 1.38 0.67 1.22 1.58 0.46 1.2 1.38 0.67 1.22 1.58 0.45 1.21 1.38 0.67 1.22 1.58 0.46 1.2 1.38 0.67 1.22 1.58 0.46 1.2 1.38 0.67 1.22 1.58 0.45 1.21 1.38 0.67 1.22 1.58 0.46 1.2 1.38 0.67 1.22 1.58 0.45 1.21 1.38 0.67 1.22 1.58 0.46 1.2 1.38 0.67 1.22 1.58 0.45 1.21 1.38 0.67 1.22 1.58 0.46 1.2 1.38 0.67 1.22 1.58 0.45 1.21 1.38 0.67 1.22 1.58 0.46 1.2 1.38 0.67 1.22 1.58 0.46 1.2 1.38 0.67 1.22 1.58 0.45 1.21 1.38 0.67 1.22 1.58 0.46 1.2 1.38 0.67 1.22 1.58 0.45 1.21 1.38 0.67 1.22 1.58 0.46 1.2 1.38 0.67 1.22 1.58 0.45 1.21 1.38 0.67 1.22 1.58 0.46 1.2 1.38 0.67 1.22 1.58 0.45 1.21 1.38 0.67 1.22 1.58 0.45 1.21 1.38 0.67 1.22 1.58 0.46 1.2 1.38 0.67 1.22 1.58 0.45 1.21 1.38 0.67 1.22 1.58 0.46 1.2 1.38 0.67 1.22 1.58 0.45 1.21 1.38 0.67 1.22 1.58 0.46 1.2 1.38 0.67 1.22 1.58 0.45 1.21 1.38 0.67 1.22 1.58 0.46 1.2 1.38 0.67 1.22 1.58 0.46 1.2 1.38 0.67 1.22 1.58 0.45 1.21 1.38 0.67 1.22 1.58 0.46 1.2 1.38 0.67 1.22 1.58 0.45 1.21 1.38 0.67 1.22 1.58 0.46 1.2 1.38 0.67 1.22 1.58 0.45 1.21 1.38 0.67 1.22 1.58 0.46 1.2 1.38 0.67 1.22 1.58 0.45 1.21 1.38 0.67 1.22 1.58 0.46 1.2 1.38 0.67 1.22 1.58 0.46 1.2 1.38 0.67 1.22 1.58 0.45 1.21 1.38 0.67 1.22 1.58 0.46 1.2 1.38 0.67 1.22 1.58 0.45 1.21 1.38 0.67 1.22 1.58 0.46 1.2 1.38 0.67 1.22 1.58 0.45 1.21 1.38 0.67 1.22 1.58 0.46 1.2 1.38 0.67 1.22 1.58 0.46 1.2 1.38 0.67 1.22 1.58 0.45 1.21 1.38 0.67 1.22 1.58 0.46 1.2 1.38 0.67 1.22 1.58 0.45 1.21 1.38 0.67 1.22 1.58 0.46 1.2 1.38 0.67 1.22 1.58 0.45 1.21 1.38 0.67 1.22 1.58 0.46 1.2 1.38 0.67 1.22 1.58 0.45 1.21 1.38 0.67 1.22 1.58 0.46 1.2 1.38 0.67 1.22 1.58 0.46 1.2 1.38 0.67 1.22 1.58 0.45 1.21 1.38 0.67 1.22 1.58 0.46 1.2 1.38 0.67 1.22 1.58 0.45 1.21 1.38 0.67 1.22 1.58 0.46 1.2 1.38 0.67 1.22 1.58 0.45 1.21 1.38 0.67 1.22 1.58 0.46 1.2 1.38 0.67 1.22 1.58 0.45 1.21 1.38 0.67 1.22 1.58 0.46 1.2 1.38 0.67 1.22 1.58 0.46 1.2 1.38 0.67 1.22 1.58 0.45 1.21 1.38 0.67 1.22 1.58 0.46 1.2 1.38 0.67 1.22 1.58 0.45 1.21 1.38 0.67 1.22 1.58 0.46 1.2 1.38 0.67 1.22 1.58 0.45 1.21 1.38 0.67 1.22 1.58 0.46 1.2 1.38 0.67 1.22 1.58 0.46 1.2 1.38 0.67 1.22 1.58 0.45 1.21 1.38 0.67 1.22 1.58 0.46 1.2 1.38 0.67 1.22 1.58 0.45 1.21 1.38 0.67 1.22 1.58 0.46 1.2 1.38 0.67 1.22 1.58 0.45 1.21 1.38 0.67 1.22 1.58 0.46 1.2 1.38 0.67 1.22 1.58 0.45 1.21 1.38 0.67 1.22 1.58 0.46 1.2 1.38 0.67 1.22 1.58 0.46 1.2 1.38 0.67 1.22 1.58 0.45 1.21 1.38 0.67 1.22 1.58 0.46 1.2 1.38 0.67 1.22 1.58 0.45 1.21 1.38 0.67 1.22 1.58 0.46 1.2 1.38 0.67 1.22 1.58 0.45 1.21 1.38 0.67 1.22 1.58 0.46 1.2 1.38 0.67 1.22 1.58 0.45 1.21 1.38 0.67 1.22 1.58 0.46 1.2 1.38 0.67 1.22 1.58 0.46 1.2 1.38 0.67 1.22 1.58 0.45 1.21 1.38 0.67 1.22 1.58 0.46 1.2 1.38 0.67 1.22 1.58 0.45 1.21 1.38 0.67 1.22 1.58 0.46 1.2 1.38 0.67 1.22 1.58 0.45 1.21 1.38 0.67 1.22 1.58 0.46 1.2 1.38 0.67 1.22 1.58 0.46 1.2 1.38 0.67 1.22 1.58 0.45 1.21 1.38 0.67 1.22 1.58 0.46 1.2 1.38 0.67 1.22 1.58 0.45 1.21 1.38 0.67 1.22 1.58 0.46 1.2 1.38 0.67 1.22 1.58 0.45 1.21 1.38 0.67 1.22 1.58 0.46 1.2 1.38 0.67 1.22 1.58 0.45 1.21 1.38 0.67 1.22 1.58 0.46 1.2 1.38 0.67 1.22 1.58 0.46 1.2 1.38 0.67 1.22 1.58 0.45 1.21 1.38 0.67 1.22 1.58 0.46 1.2 1.38 0.67 1.22 1.58 0.45 1.21 1.38 0.67 1.22 1.58 0.46 1.2 1.38 0.67 1.22 1.58 0.45 1.21 1.38 0.67 1.22 1.58 0.46 1.2 1.38 0.67 1.22 1.58 0.45 1.21 1.38 0.67 1.22 1.58 0.46 1.2 1.38 0.67 1.22 1.58 0.46 1.2 1.38 0.67 1.22 1.58 0.45 1.21 1.38 0.67 1.22 1.58 0.46 1.2 1.38 0.67 1.22 1.58 0.45 1.21 1.38 0.67 1.22 1.58 0.46 1.2 1.38 0.67 1.22 1.58 0.45 1.21 1.38 0.67 1.22 1.58 0.46 1.2 1.38 0.67 1.22 1.58 0.45 1.21 1.38 0.67 1.22 1.58 0.45 1.21 1.38 0.67 1.22 1.58 0.46 1.2 1.38 0.67 1.22 1.58 0.45 1.21 1.38 0.67 1.22 1.58 0.46 1.2 1.38 0.67 v 0 0 l 0.67,-3.13 0.67,-9.36 1.33,-37.15 0.58,-23.72 1.23,-64.13 1.27,-84.99 0.76,-60.19 1.13,-99.5 1.3,-127.96 0.83,-87.11 1.19,-132.41 1.38,-161.26 0.68,-80.03 1.24,-146.34 1.55,-179.66 0.46,-52.02 1.41,-150.3 0.01,-1.36 v 0 -0.02 0 -0.01 -0.01 -0.03 -0.05 -0.09 -0.2 l 0.01,-0.38 0.01,-0.78 0.01,-1.53 0.03,-3.09 0.06,-6.13 0.12,-12.2 0.24,-24.08 0.48,-46.79 0.88,-79.867 1.61,-127.125 0.95,-62.789 0.7,-37.945 1.26,-54.028 1.29,-33.062 0.7,-8.278 0.5,-1.734 v 0 0 0 0 0 0 0 0 0 0 h 0.01 0.02 0.02 0.07 0.12 0.24 0.49 0.97 0.82 2.75 0.5 2.18 1.07 1.27 1.43 0.56 1.3 1.56 0.4 1.26 1.37 0.62 1.3 1.62 0.33 1.27 1.32 0.67 1.3 1.65 0.31 1.27 1.28 0.7 1.3 1.66 0.29 1.28 1.27 0.71 1.29 1.68 0.29 1.27 1.27 0.71 1.29 1.67 0.29 1.28 1.27 0.71 1.29 1.67 0.3 1.27 1.27 0.71 1.29 1.67 0.3 1.27 1.27 0.71 1.28 1.67 0.3 1.28 1.28 0.7 1.28 1.67 0.31 1.26 1.29 0.7 1.28 1.67 0.3 1.27 1.28 0.71 1.28 1.66 0.32 1.25 1.27 0.73 1.18 1.58 0.49 1.24 1.44 0.58 1.19 1.49 0.58 1.23 1.51 0.51 1.2 1.42 0.64 1.22 1.56 0.47 1.2 1.39 0.66 1.23 1.58 0.45 1.21 1.37 0.68 1.22 1.59 0.44 1.21 1.36 0.68 1.23 1.59 0.44 1.21 1.36 0.69 1.22 1.59 0.44 1.21 1.36 0.68 1.23 1.59 0.44 1.21 1.36 0.69 1.22 1.59 0.44 1.21 1.36 0.68 1.23 1.58 0.45 1.21 1.36 0.69 1.22 1.58 0.45 1.21 1.36 0.69 1.22 1.58 0.45 1.21 1.37 0.67 1.23 1.58 0.45 1.21 1.37 0.68 1.22 1.58 0.45 1.21 1.37 0.67 1.23 1.58 0.45 1.21 1.37 0.68 1.22 1.58 0.45 1.21 1.37 0.67 1.23 1.58 0.45 1.21 1.37 0.68 1.22 1.58 0.45 1.21 1.37 0.67 1.23 1.57 0.46 1.21 1.37 0.68 1.22 1.57 0.46 1.21 1.37 0.68 1.22 1.57 0.46 1.21 1.37 0.67 1.23 1.57 0.46 1.21 1.37 0.68 1.22 1.57 0.46 1.21 1.38 0.66 1.23 1.57 0.46 1.21 1.38 0.67 1.22 1.57 0.46 1.21 1.38 0.66 1.23 1.57 0.46 1.21 1.38 0.67 1.22 1.57 0.46 1.21 1.38 0.67 1.22 1.57 0.46 1.21 1.38 0.66 1.23 1.57 0.46 1.21 1.38 0.67 1.22 1.57 0.46 1.21 1.38 0.66 1.23 1.57 0.46 1.21 1.38 0.67 1.22 1.57 0.46 1.21 1.38 0.66 1.23 1.57 0.46 1.21 1.38 0.67 1.22 1.57 0.46 1.21 1.38 0.66 1.23 1.57 0.46 1.21 1.38 0.67 1.22 1.57 0.46 1.21 1.38 0.67 1.22 1.57 0.46 1.21 1.38 0.66 1.23 1.57 0.46 1.21 1.38 0.67 1.22 1.57 0.46 1.21 1.38 0.66 1.23 1.57 0.46 1.21 1.38 0.67 1.22 1.57 0.46 1.21 1.38 0.66 1.23 1.57 0.46 1.21 1.38 0.67 1.22 1.57 0.46 1.21 1.38 0.66 1.23 1.57 0.46 1.21 1.38 0.67 1.22 1.57 0.46 1.21 1.38 0.67 1.22 1.57 0.46 1.21 1.38 0.66 1.23 1.57 0.46 1.21 1.38 0.67 1.22 1.57 0.46 1.21 1.38 0.66 1.23 1.57 0.46 1.21 1.38 0.67 1.22 1.57 0.46 1.21 1.38 0.66 1.23 1.57 0.46 1.21 1.38 0.67 1.22 1.57 0.46 1.21 1.38 0.67 1.22 1.57 0.46 1.21 1.38 0.66 1.23 1.57 0.46 1.21 1.38 0.67 1.22 1.57 0.46 1.21 1.38 0.66 1.23 1.57 0.46 1.21 1.38 0.67 1.22 1.57 0.46 1.21 1.38 0.66 1.23 1.57 0.46 1.21 1.38 0.67 1.22 1.57 0.46 1.21 1.38 0.66 1.23 1.57 0.46 1.21 1.38 0.67 1.22 1.57 0.46 1.21 1.38 0.67 1.22 1.57 0.46 1.21 1.38 0.66 1.23 1.57 0.46 1.21 1.38 0.67 1.22 1.57 0.46 1.21 1.38 0.66 1.23 1.57 0.46 1.21 1.38 0.67 1.22 1.57 0.46 1.21 1.38 0.66 1.23 1.57 0.46 1.21 1.38 0.67 1.22 1.57 0.46 1.21 1.38 0.66 1.23 1.57 0.46 1.21 1.38 0.67 1.22 1.57 0.46 1.21 1.38 0.67 1.22 1.57 0.46 1.21 1.38 0.66 1.23 1.57 0.46 1.21 1.38 0.67 1.22 1.57 0.46 1.21 1.38 0.66 1.23 1.57 0.46 1.21 1.38 0.67 1.22 1.57 0.46 1.21 1.38 0.66 1.23 1.57 0.46 1.21 1.38 0.67 1.22 1.57 0.46 1.21 1.38 0.67 1.22 1.57 0.46 1.21 1.38 0.66 1.23 1.57 0.46 1.21 1.38 0.67 1.22 1.57 0.46 1.21 1.38 0.66 1.23 1.57 0.46 1.21 1.38 0.67 1.22 1.57 0.46 1.21 1.38 0.66 1.23 1.57 0.46 1.21 1.38 0.67 1.22 1.57 0.46 1.21 1.38 0.66 1.23 1.57 0.46 1.21 1.38 0.67 1.22 1.57 0.46 1.21 1.38 0.67 1.22 1.57 0.46 1.21 1.38 0.66 1.23 1.57 0.46 1.21 1.38 0.67 1.22 1.57 0.46 1.21 1.38 0.66 1.23 1.57 0.46 1.21 1.38 0.67 1.22 1.57 0.46 1.21 1.38 0.66 1.23 1.57 0.46 1.21 1.38 0.67 1.22 1.57 0.46 1.21 1.38 0.66 1.23 1.57 0.46 1.21 1.38 0.67 1.22 1.57 0.46 1.21 1.38 0.67 1.22 1.57 0.46 1.21 1.38 0.66 1.23 1.57 0.46 1.21 1.38 0.67 1.22 1.57 0.46 1.21 1.38 0.66 1.23 1.57 0.46 1.21 1.38 0.67 1.22 1.57 0.46 1.21 1.38 0.66 1.23 1.57 0.46 1.21 1.38 0.67 1.22 1.57 0.46 1.21 1.38 0.66 1.23 1.57 0.46 1.21 1.38 0.66 1.23 1.57 0.46 1.21 1.38 0.67 1.22 1.57 0.46 1.21 1.38 0.66 1.23 1.57 0.46 1.21 1.38 0.67 1.22 1.57 0.46 1.21 1.38 0.66 1.23 1.57 0.46 1.21 1.38 0.67 1.22 1.57 0.46 1.21 1.38 0.66 1.23 1.57 0.46 1.21 1.38 0.67 1.22 1.57 0.46 1.21 1.38 0.67 1.22 1.57 0.46 1.21 1.38 0.66 1.23 1.57 0.46 1.21 1.38 0.67 1.22 1.57 0.46 1.21 1.38 0.66 1.23 1.57 0.46 1.21 1.38 0.67 1.22 1.57 0.46 1.21 1.38 0.66 1.23 1.57 0.46 1.21 1.38 0.67 1.22 1.57 0.46 1.21 1.38 0.66 1.23 1.57 0.46 1.21 1.38 0.67 1.22 1.57 0.46 1.21 1.38 0.67 1.22 1.57 0.46 1.21 1.38 0.66 1.23 1.57 0.46 1.21 1.38 0.67 1.22 1.57 0.46 1.21 1.38 0.66 1.23 1.57 0.46 1.21 1.38 0.67 1.22 1.57 0.46 1.21 1.38 0.66 1.23 1.57 0.46 1.21 1.38 0.67 1.22 1.57 0.46 1.21 1.38 0.67 1.22 1.57 0.46 1.21 1.38 0.66 1.23 1.57 0.46 1.21 1.38 0.67 1.22 1.57 0.46 1.21 1.38 0.66 1.23 1.57 0.46 1.21 1.38 0.67 1.22 1.57 0.46 1.21 1.38 0.66 1.23 1.57 0.46 1.21 1.38 0.67 1.22 1.57 0.46 1.21 1.38 0.66 1.23 1.57 0.46 1.21 1.38 0.67 1.22 1.57 0.46 1.21 1.38 0.67 1.22 1.57 0.46 1.21 1.38 0.66 1.23 1.57 0.46 1.21 1.38 0.67 1.22 1.57 0.46 1.21 1.38 0.66 1.23 1.57 0.46 1.21 1.38 0.67 1.22 1.57 0.46 1.21 1.38 0.66 1.23 1.57 0.46 1.21 1.38 0.67 1.22 1.57 0.46 1.21 1.38 0.66 1.23 1.57 0.46 1.21 1.38 0.67 1.22 1.57 0.46 1.21 1.38 0.67 1.22 1.57 0.46 1.21 1.38 0.66 1.23 1.57 0.46 1.21 1.38 0.67 1.22 1.57 0.46 1.21 1.38 0.66 1.23 1.57 0.46 1.21 1.38 0.67 1.22 1.57 0.46 1.21 1.38 0.66 1.23 1.57 0.46 1.21 1.38 0.67 1.22 1.57 0.46 1.21 1.38 0.67 1.22 1.57 0.46 1.21 1.38 0.66 1.23 1.57 0.46 1.21 1.38 0.67 1.22 1.57 0.46 1.21 1.38 0.66 1.23 1.57 0.46 1.21 1.38 0.67 1.22 1.57 0.46 1.21 1.38 0.66 1.23 1.57 0.46 1.21 1.38 0.67 1.22 1.57 0.46 1.21 1.38 0.66 1.23 1.57 0.46 1.21 1.38 0.67 1.22 1.57 0.46 1.21 1.38 0.67 1.22 1.57 0.46 1.21 1.38 0.66 1.23 1.57 0.46 1.21 1.38 0.67 1.22 1.57 0.46 1.21 1.38 0.66 1.23 1.57 0.46 1.21 1.38 0.67 1.22 1.57 0.46 1.21 1.38 0.66 1.23 1.57 0.46 1.21 1.38 0.67 1.22 1.57 0.46 1.21 1.38 0.66 1.23 1.57 0.46 1.21 1.38 0.67 1.22 1.57 0.46 1.21 1.38 0.67 1.22 1.57 0.46 1.21 1.38 0.66 1.23 1.57 0.46 1.21 1.38 0.67 1.22 1.57 0.46 1.21 1.38 0.66 1.23 1.57 0.46 1.21 1.38 0.67 1.22 1.57 0.46 1.21 1.38 0.66 1.23 1.57 0.46 1.21 1.38 0.67 1.22 1.57 0.46 1.21 1.38 0.67 1.22 1.57 0.46 1.21 1.38 0.66 1.23 1.57 0.46 1.21 1.38 0.67 1.22 1.57 0.46 1.21 1.38 0.66 1.23 1.57 0.46 1.21 1.38 0.67 1.22 1.57 0.46"
         style="fill:none;stroke:#ff0000;stroke-width:5.0025;stroke-linecap:butt;stroke-linejoin:round;stroke-miterlimit:10;stroke-dasharray:none;stroke-opacity:1"
         id="path194" /><path
         d="m 357.5,600.832 v 0 0 0 0 h 0.008 0.031 0.133 0.277 v 0 0 h 0.031 v 0 0 h 0.032 0.027 0.063 0.117 0.234 0.465 0.785 0.879 0.172 0.871 1.387 1 2.359 0.895 3.254 3.253 3.258 2.114 1.14 1.215 1.262 0.777 1.215 1.613 0.43 1.207 1.348 0.699 1.222 1.59 0.442 1.207 1.367 0.68 1.222 1.582 0.453 1.207 1.372 0.675 1.223 1.574 0.457 1.207 1.375 0.672 1.223 1.578 0.457 1.207 1.379 0.668 1.223 1.574 0.457 1.207 1.383 0.668 1.222 1.574 0.457 1.208 1.378 0.668 1.223 1.574 0.457 1.211 1.379 0.668 1.223 1.574 0.457 1.207 1.379 0.668 1.223 1.574 0.461 1.207 1.379 0.668 1.222 1.575 0.457 1.207 1.382 0.664 1.223 1.578 0.457 1.207 1.379 0.668 1.223 1.574 0.457 1.207 1.383 0.668 1.219 1.578 0.457 1.207 1.379 0.668 1.222 1.575 0.457 1.207 1.382 0.668 1.223 1.574 0.457 1.207 1.379 0.668 1.223 1.574 0.457 1.211 1.379 0.668 1.223 1.574 0.457 1.207 1.379 0.668 1.222 1.575 0.461 1.207 1.379 0.667 1.223 1.574 0.457 1.207 1.383 0.664 1.223 1.578 0.457 1.207 1.379 0.668 v 0 0 h 0.668 0.668 1.336 0.582 2.91 0.348 1.371 1.41 0.473 1.093 1.282 0.879 1.328 1.672 0.253 1.125 1.125 1.008 1.297 1.5 0.457 1.149 1.312 0.793 1.277 1.672 0.309 1.16 1.199 0.895 1.265 1.59 0.399 1.172 1.289 0.793 1.254 1.64 0.363 1.184 1.254 0.816 1.246 1.633 0.375 1.188 1.281 0.785 1.238 1.637 0.383 1.191 1.289 0.774 1.238 1.625 0.391 1.195 1.305 0.758 1.226 1.629 0.398 1.2 1.304 0.75 1.231 1.621 0.402 1.203 1.313 0.742 1.231 1.617 0.406 1.199 1.328 0.727 1.23 1.614 0.414 1.199 1.336 0.719 1.222 1.614 0.418 1.199 1.336 0.718 1.223 1.613 0.422 1.207 1.336 0.711 1.223 1.605 0.426 1.207 1.344 0.707 1.219 1.605 0.43 1.207 1.344 0.703 1.222 1.598 0.434 1.207 1.351 0.699 1.223 1.598 0.433 1.207 1.352 0.695 1.223 1.598 0.433 1.211 1.356 0.691 1.223 1.589 0.442 1.207 1.359 0.688 1.222 1.59 0.446 1.207 1.355 0.691 1.223 1.59 0.441 1.207 1.368 0.679 1.223 1.59 0.445 1.207 1.363 0.684 v 0 0 l 0.684,1.094 0.679,3.273 1.043,9.028 0.848,10.832 0.91,14.683 0.938,18.09 0.937,20.566 0.473,11.114 1.047,25.945 0.976,25.25 0.953,24.586 0.278,7.059 1.191,29.339 1.043,23.645 1.02,20.16 1.074,17.484 1.242,14.602 0.937,6.57 1.036,2.512 v 0 0 0 0 0 0 0 0 h 0.007 v 0 h 0.016 0.016 0.043 0.086 0.164 0.328 0.652 0.91 1.055 0.977 0.914 0.308 1.059 0.922 0.882 0.317 v 0 0 0 0 0 0 0 h 0.008 v 0 h 0.015 0.016 0.035 0.074 0.153 0.293 0.597 1.188 0.953 1.91 1.344 1.355 1.188 0.711 1.125 1.508 0.621 1.304 1.653 0.3 1.145 1.18 0.929 1.282 1.574 0.398 1.156 1.274 0.824 1.262 1.648 0.348 1.16 1.238 0.856 1.254 1.609 0.391 1.172 1.281 0.805 1.242 1.629 0.382 1.176 1.285 0.793 1.239 1.621 0.394 1.188 1.297 0.773 1.231 1.625 0.398 1.184 1.304 0.766 1.23 1.621 0.407 1.191 1.313 0.75 1.23 1.613 0.411 1.191 1.32 0.742 1.223 1.621 0.414 1.199 1.329 0.726 1.223 1.613 0.418 1.199 1.336 0.723 1.219 1.613 0.422 1.199 1.344 0.711 1.222 1.614 0.418 1.207 1.336 0.714 1.223 1.602 0.429 1.207 1.344 0.703 1.223 1.605 0.426 1.211 1.348 0.699 1.23 1.598 0.426 1.207 1.351 0.696 1.23 1.598 0.43 1.214 1.348 0.691 1.231 1.598 0.425 1.215 1.352 0.687 1.231 1.597 0.43 1.215 1.348 0.691 1.23 1.606 0.418 1.215 1.351 0.692 1.226 1.606 0.422 1.214 1.356 0.684 1.23 1.605 0.418 1.223 1.352 0.683 1.239 1.593 0.422 1.223 1.351 0.68 1.238 1.606 0.414 1.223 1.347 0.684 1.238 1.602 0.414 1.222 1.352 0.68 1.238 1.605 0.414 1.223 1.348 0.683 1.239 1.613 0.402 1.231 1.343 0.684 1.234 1.614 0.406 1.23 1.34 0.684 1.246 1.605 0.403 1.23 1.344 0.684 1.242 1.613 0.398 1.231 1.34 0.683 1.246 1.614 0.394 1.231 1.344 0.683 1.242 1.621 0.391 1.23 1.336 0.688 1.246 1.621 0.391 1.234 1.328 0.692 1.254 1.609 0.391 1.238 1.328 0.687 1.254 1.621 0.383 1.235 1.328 0.691 1.254 1.617 0.383 1.238 1.328 0.692 1.25 1.629 0.375 1.238 1.324 0.692 1.254 1.625 0.375 1.238 1.328 0.691 1.25 1.629 0.375 1.246 1.321 0.687 1.262 1.625 0.367 1.246 1.321 0.691 1.258 1.629 0.367 1.246 1.32 0.688 1.261 1.633 0.364 1.242 1.312 0.699 1.258 1.637 0.359 1.246 1.31 0.7 1.26 1.64 0.36 1.24 1.31 0.7 1.26 1.64 0.35 1.25 1.31 0.7 1.26 1.64 0.36 1.25 1.3 0.7 1.27 1.63 0.35 1.26 1.3 0.7 1.27 1.63 0.36 1.25 1.3 0.7 1.27 1.64 0.35 1.25 1.3 0.7 1.27 1.64 0.34 1.26 1.3 0.7 1.27 1.64 0.35 1.25 1.3 0.7 1.27 1.65 0.33 1.26 1.3 0.7 1.27 1.65 0.34 1.25 1.3 0.7 1.27 1.65 0.33 1.27 1.29 0.7 1.28 1.64 0.34 1.25 1.3 0.7 1.28 1.64 0.33 1.27 1.29 0.7 1.27 1.66 0.33 1.26 1.29 0.7 1.28 1.64 0.34 1.25 1.3 0.7 1.27 1.66 0.32 1.27 1.29 0.7 1.28 1.64 0.34 1.25 1.3 0.7 1.27 1.66 0.32 1.27 1.29 0.7 1.28 1.64 0.34 1.25 1.3 0.7 1.27 1.66 0.32 1.27 1.29 0.7 1.27 1.66 0.33 1.26 1.29 0.7 1.28 1.65 0.32 1.27 1.29 0.7 1.27 1.66 0.32 1.27 1.29 0.7 1.28 1.65 0.33 1.26 1.29 0.7 1.28 1.65 0.32 1.27 1.29 0.7 1.28 1.65 0.33 1.26 1.29 0.7 1.28 1.65 0.32 1.27 1.29 0.7 1.28 1.65 0.33 1.26 1.29 0.7 1.28 1.66 0.31 1.27 1.29 0.7 1.28 1.66 0.32 1.26 1.29 0.7 1.28 1.66 0.32 1.26 1.29 0.7 1.28 1.66 0.31 1.27 1.29 0.7 1.28 1.66 0.32 1.22 1.25 0.78 1.22 1.59 0.44 1.22 1.37 0.67 1.22 1.57 0.47 1.21 1.38 0.66 1.21 1.57 0.47 1.21 1.4 0.65 1.22 1.56 0.48 1.2 1.4 0.65 1.21 1.57 0.47 1.21 1.41 0.64 1.22 1.55 0.49 1.2 1.4 0.65 1.21 1.57 0.48 1.2 1.41 0.64 1.22 1.56 0.47 1.21 1.4 0.65 1.21 1.57 0.48 1.2 1.4 0.65 1.22 1.56 0.47 1.21 1.4 0.65 1.22 1.56 0.48 1.2 1.4 0.65 1.21 1.57 0.47 1.21 1.4 0.65 1.22 1.56 0.48 1.2 1.4 0.65 1.21 1.57 0.48 1.2 1.4 0.65 1.22 1.57 0.46 1.21 1.39 0.66 1.21 1.58 0.47 1.2 1.39 0.66 1.22 1.57 0.46 1.21 1.39 0.66 1.22 1.57 0.47 1.2 1.39 0.66 1.21 1.58 0.46 1.21 1.39 0.66 1.22 1.57 0.47 1.2 1.39 0.66 1.21 1.58 0.46 1.21 1.39 0.66 1.22 1.57 0.47 1.2 1.39 0.66 1.22 1.57 0.47 1.2 1.39 0.66 1.22 1.57 0.46 1.21 1.39 0.66 1.22 1.57 0.47 1.2 1.38 0.67 1.22 1.57 0.46 1.21 1.38 0.67 1.22 1.58 0.46 1.2 1.38 0.67 1.22 1.58 0.45 1.21 1.38 0.67 1.22 1.58 0.46 1.2 1.38 0.67 1.22 1.58 0.45 1.21 1.38 0.67 1.22 1.58 0.46 1.2 1.38 0.67 1.22 1.58 0.46 1.2 1.38 0.67 1.22 1.58 0.45 1.21 1.38 0.67 1.22 1.58 0.46 1.2 1.38 0.67 1.22 1.58 0.45 1.21 1.38 0.67 1.22 1.58 0.46 1.2 1.38 0.67 1.22 1.58 0.45 1.21 1.38 0.67 1.22 1.58 0.46 1.2 1.38 0.67 1.22 1.58 0.46 1.2 1.38 0.67 1.22 1.58 0.45 1.21 1.38 0.67 1.22 1.58 0.46 1.2 1.38 0.67 1.22 1.58 0.45 1.21 1.38 0.67 1.22 1.58 0.46 1.2 1.38 0.67 1.22 1.58 0.45 1.21 1.38 0.67 1.22 1.58 0.46 1.2 1.38 0.67 1.22 1.58 0.45 1.21 1.38 0.67 1.22 1.58 0.46 1.2 1.38 0.67 1.22 1.58 0.46 1.2 1.38 0.67 1.22 1.58 0.45 1.21 1.38 0.67 1.22 1.58 0.46 1.2 1.38 0.67 1.22 1.58 0.45 1.21 1.38 0.67 1.22 1.58 0.46 1.2 1.38 0.67 1.22 1.58 0.45 1.21 1.38 0.67 1.22 1.58 0.46 1.2 1.38 0.67 1.22 1.58 0.45 1.21 1.38 0.67 1.22 1.58 0.46 1.2 1.38 0.67 1.22 1.58 0.46 1.2 1.38 0.67 1.22 1.58 0.45 1.21 1.38 0.67 1.22 1.58 0.46 1.2 1.38 0.67 1.22 1.58 0.45 1.21 1.38 0.67 1.22 1.58 0.46 1.2 1.38 0.67 1.22 1.58 0.45 1.21 1.38 0.67 1.22 1.58 0.46 1.2 1.38 0.67 1.22 1.58 0.45 1.21 1.38 0.67 1.22 1.58 0.45 1.21 1.38 0.67 1.22 1.58 0.46 1.2 1.38 0.67 1.22 1.58 0.45 1.21 1.38 0.67 1.22 1.58 0.46 1.2 1.38 0.67 1.22 1.58 0.45 1.21 1.38 0.67 1.22 1.58 0.46 1.2 1.38 0.67 1.22 1.58 0.45 1.21 1.38 0.67 1.22 1.58 0.46 1.2 1.38 0.67 1.22 1.58 0.46 1.2 1.38 0.67 1.22 1.58 0.45 1.21 1.38 0.67 1.22 1.58 0.46 1.2 1.38 0.67 1.22 1.58 0.45 1.21 1.38 0.67 1.22 1.58 0.46 1.2 1.38 0.67 1.22 1.58 0.45 1.21 1.38 0.67 1.22 1.58 0.46 1.2 1.38 0.67 1.22 1.58 0.45 1.21 1.38 0.67 1.22 1.58 0.46 1.2 1.38 0.67 1.22 1.58 0.46 1.2 1.38 0.67 1.22 1.58 0.45 1.21 1.38 0.67 1.22 1.58 0.46 1.2 1.38 0.67 1.22 1.58 0.45 1.21 1.38 0.67 1.22 1.58 0.46 1.2 1.38 0.67 1.22 1.58 0.45 1.21 1.38 0.67 1.22 1.58 0.46 1.2 1.38 0.67 1.22 1.58 0.46 1.2 1.38 0.67 1.22 1.58 0.45 1.21 1.38 0.67 1.22 1.58 0.46 1.2 1.38 0.67 1.22 1.58 0.45 1.21 1.38 0.67 1.22 1.58 0.46 1.2 1.38 0.67 1.22 1.58 0.45 1.21 1.38 0.67 1.22 1.58 0.46 1.2 1.38 0.67 1.22 1.58 0.45 1.21 1.38 0.67 1.22 1.58 0.46 1.2 1.38 0.67 1.22 1.58 0.46 1.2 1.38 0.67 1.22 1.58 0.45 1.21 1.38 0.67 1.22 1.58 0.46 1.2 1.38 0.67 1.22 1.58 0.45 1.21 1.38 0.67 1.22 1.58 0.46 1.2 1.38 0.67 1.22 1.58 0.45 1.21 1.38 0.67 1.22 1.58 0.46 1.2 1.38 0.67 1.22 1.58 0.45 1.21 1.38 0.67 1.22 1.58 0.46 1.2 1.38 0.67 1.22 1.58 0.46 1.2 1.38 0.67 1.22 1.58 0.45 1.21 1.38 0.67 1.22 1.58 0.46 1.2 1.38 0.67 1.22 1.58 0.45 1.21 1.38 0.67 1.22 1.58 0.46 1.2 1.38 0.67 1.22 1.58 0.45 1.21 1.38 0.67 1.22 1.58 0.46 1.2 1.38 0.67 1.22 1.58 0.46 1.2 1.38 0.67 1.22 1.58 0.45 1.21 1.38 0.67 1.22 1.58 0.46 1.2 1.38 0.67 1.22 1.58 0.45 1.21 1.38 0.67 1.22 1.58 0.46 1.2 1.38 0.67 1.22 1.58 0.45 1.21 1.38 0.67 1.22 1.58 0.46 1.2 1.38 0.67 1.22 1.58 0.45 1.21 1.38 0.67 1.22 1.58 0.46 1.2 1.38 0.67 1.22 1.58 0.46 1.2 1.38 0.67 1.22 1.58 0.45 1.21 1.38 0.67 1.22 1.58 0.46 1.2 1.38 0.67 1.22 1.58 0.45 1.21 1.38 0.67 1.22 1.58 0.46 1.2 1.38 0.67 1.22 1.58 0.45 1.21 1.38 0.67 1.22 1.58 0.46 1.2 1.38 0.67 1.22 1.58 0.45 1.21 1.38 0.67 1.22 1.58 0.46 1.2 1.38 0.67 1.22 1.58 0.46 1.2 1.38 0.67 1.22 1.58 0.45 1.21 1.38 0.67 1.22 1.58 0.46 1.2 1.38 0.67 1.22 1.58 0.45 1.21 1.38 0.67 1.22 1.58 0.46 1.2 1.38 0.67 1.22 1.58 0.45 1.21 1.38 0.67 1.22 1.58 0.46 1.2 1.38 0.67 1.22 1.58 0.46 1.2 1.38 0.67 1.22 1.58 0.45 1.21 1.38 0.67 1.22 1.58 0.46 1.2 1.38 0.67 1.22 1.58 0.45 1.21 1.38 0.67 1.22 1.58 0.46 1.2 1.38 0.67 1.22 1.58 0.45 1.21 1.38 0.67 1.22 1.58 0.46 1.2 1.38 0.67 1.22 1.58 0.45 1.21 1.38 0.67 1.22 1.58 0.46 1.2 1.38 0.67 1.22 1.58 0.46 1.2 1.38 0.67 1.22 1.58 0.45 1.21 1.38 0.67 1.22 1.58 0.46 1.2 1.38 0.67 1.22 1.58 0.45 1.21 1.38 0.67 1.22 1.58 0.46 1.2 1.38 0.67 1.22 1.58 0.45 1.21 1.38 0.67 1.22 1.58 0.46 1.2 1.38 0.67 1.22 1.58 0.45 1.21 1.38 0.67 1.22 1.58 0.46 1.2 1.38 0.67 1.22 1.58 0.46 1.2 1.38 0.67 1.22 1.58 0.45 1.21 1.38 0.67 1.22 1.58 0.46 1.2 1.38 0.67 1.22 1.58 0.45 1.21 1.38 0.67 1.22 1.58 0.46 1.2 1.38 0.67 1.22 1.58 0.45 1.21 1.38 0.67 1.22 1.58 0.46 1.2 1.38 0.67 1.22 1.58 0.45 1.21 1.38 0.67 1.22 1.58 0.45 1.21 1.38 0.67 1.22 1.58 0.46 1.2 1.38 0.67 1.22 1.58 0.45 1.21 1.38 0.67 1.22 1.58 0.46 1.2 1.38 0.67 v 0 0 l 0.67,-1.004 0.67,-3 1.33,-11.781 0.58,-7.426 1.23,-19.687 1.27,-25.207 0.76,-17.215 1.13,-27.262 1.3,-32.781 0.83,-20.77 1.19,-29.031 1.38,-30.891 0.68,-13.351 1.24,-20.672 1.55,-17.856 0.46,-3.398 1.41,-4.5 h 0.01 v 0 0 0 0 0 0 0 0 0 h 0.01 0.01 0.01 0.03 0.06 0.12 0.24 0.48 0.88 1.61 0.95 0.7 1.26 1.29 0.7 0.5 v 0 0 0 0 0 0 0 0 0 0 h 0.01 0.02 0.02 0.07 0.12 0.24 0.49 0.97 0.82 2.75 0.5 2.18 1.07 1.27 1.43 0.56 1.3 1.56 0.4 1.26 1.37 0.62 1.3 1.62 0.33 1.27 1.32 0.67 1.3 1.65 0.31 1.27 1.28 0.7 1.3 1.66 0.29 1.28 1.27 0.71 1.29 1.68 0.29 1.27 1.27 0.71 1.29 1.67 0.29 1.28 1.27 0.71 1.29 1.67 0.3 1.27 1.27 0.71 1.29 1.67 0.3 1.27 1.27 0.71 1.28 1.67 0.3 1.28 1.28 0.7 1.28 1.67 0.31 1.26 1.29 0.7 1.28 1.67 0.3 1.27 1.28 0.71 1.28 1.66 0.32 1.25 1.27 0.73 1.18 1.58 0.49 1.24 1.44 0.58 1.19 1.49 0.58 1.23 1.51 0.51 1.2 1.42 0.64 1.22 1.56 0.47 1.2 1.39 0.66 1.23 1.58 0.45 1.21 1.37 0.68 1.22 1.59 0.44 1.21 1.36 0.68 1.23 1.59 0.44 1.21 1.36 0.69 1.22 1.59 0.44 1.21 1.36 0.68 1.23 1.59 0.44 1.21 1.36 0.69 1.22 1.59 0.44 1.21 1.36 0.68 1.23 1.58 0.45 1.21 1.36 0.69 1.22 1.58 0.45 1.21 1.36 0.69 1.22 1.58 0.45 1.21 1.37 0.67 1.23 1.58 0.45 1.21 1.37 0.68 1.22 1.58 0.45 1.21 1.37 0.67 1.23 1.58 0.45 1.21 1.37 0.68 1.22 1.58 0.45 1.21 1.37 0.67 1.23 1.58 0.45 1.21 1.37 0.68 1.22 1.58 0.45 1.21 1.37 0.67 1.23 1.57 0.46 1.21 1.37 0.68 1.22 1.57 0.46 1.21 1.37 0.68 1.22 1.57 0.46 1.21 1.37 0.67 1.23 1.57 0.46 1.21 1.37 0.68 1.22 1.57 0.46 1.21 1.38 0.66 1.23 1.57 0.46 1.21 1.38 0.67 1.22 1.57 0.46 1.21 1.38 0.66 1.23 1.57 0.46 1.21 1.38 0.67 1.22 1.57 0.46 1.21 1.38 0.67 1.22 1.57 0.46 1.21 1.38 0.66 1.23 1.57 0.46 1.21 1.38 0.67 1.22 1.57 0.46 1.21 1.38 0.66 1.23 1.57 0.46 1.21 1.38 0.67 1.22 1.57 0.46 1.21 1.38 0.66 1.23 1.57 0.46 1.21 1.38 0.67 1.22 1.57 0.46 1.21 1.38 0.66 1.23 1.57 0.46 1.21 1.38 0.67 1.22 1.57 0.46 1.21 1.38 0.67 1.22 1.57 0.46 1.21 1.38 0.66 1.23 1.57 0.46 1.21 1.38 0.67 1.22 1.57 0.46 1.21 1.38 0.66 1.23 1.57 0.46 1.21 1.38 0.67 1.22 1.57 0.46 1.21 1.38 0.66 1.23 1.57 0.46 1.21 1.38 0.67 1.22 1.57 0.46 1.21 1.38 0.66 1.23 1.57 0.46 1.21 1.38 0.67 1.22 1.57 0.46 1.21 1.38 0.67 1.22 1.57 0.46 1.21 1.38 0.66 1.23 1.57 0.46 1.21 1.38 0.67 1.22 1.57 0.46 1.21 1.38 0.66 1.23 1.57 0.46 1.21 1.38 0.67 1.22 1.57 0.46 1.21 1.38 0.66 1.23 1.57 0.46 1.21 1.38 0.67 1.22 1.57 0.46 1.21 1.38 0.67 1.22 1.57 0.46 1.21 1.38 0.66 1.23 1.57 0.46 1.21 1.38 0.67 1.22 1.57 0.46 1.21 1.38 0.66 1.23 1.57 0.46 1.21 1.38 0.67 1.22 1.57 0.46 1.21 1.38 0.66 1.23 1.57 0.46 1.21 1.38 0.67 1.22 1.57 0.46 1.21 1.38 0.66 1.23 1.57 0.46 1.21 1.38 0.67 1.22 1.57 0.46 1.21 1.38 0.67 1.22 1.57 0.46 1.21 1.38 0.66 1.23 1.57 0.46 1.21 1.38 0.67 1.22 1.57 0.46 1.21 1.38 0.66 1.23 1.57 0.46 1.21 1.38 0.67 1.22 1.57 0.46 1.21 1.38 0.66 1.23 1.57 0.46 1.21 1.38 0.67 1.22 1.57 0.46 1.21 1.38 0.66 1.23 1.57 0.46 1.21 1.38 0.67 1.22 1.57 0.46 1.21 1.38 0.67 1.22 1.57 0.46 1.21 1.38 0.66 1.23 1.57 0.46 1.21 1.38 0.67 1.22 1.57 0.46 1.21 1.38 0.66 1.23 1.57 0.46 1.21 1.38 0.67 1.22 1.57 0.46 1.21 1.38 0.66 1.23 1.57 0.46 1.21 1.38 0.67 1.22 1.57 0.46 1.21 1.38 0.67 1.22 1.57 0.46 1.21 1.38 0.66 1.23 1.57 0.46 1.21 1.38 0.67 1.22 1.57 0.46 1.21 1.38 0.66 1.23 1.57 0.46 1.21 1.38 0.67 1.22 1.57 0.46 1.21 1.38 0.66 1.23 1.57 0.46 1.21 1.38 0.67 1.22 1.57 0.46 1.21 1.38 0.66 1.23 1.57 0.46 1.21 1.38 0.67 1.22 1.57 0.46 1.21 1.38 0.67 1.22 1.57 0.46 1.21 1.38 0.66 1.23 1.57 0.46 1.21 1.38 0.67 1.22 1.57 0.46 1.21 1.38 0.66 1.23 1.57 0.46 1.21 1.38 0.67 1.22 1.57 0.46 1.21 1.38 0.66 1.23 1.57 0.46 1.21 1.38 0.67 1.22 1.57 0.46 1.21 1.38 0.66 1.23 1.57 0.46 1.21 1.38 0.67 1.22 1.57 0.46 1.21 1.38 0.67 1.22 1.57 0.46 1.21 1.38 0.66 1.23 1.57 0.46 1.21 1.38 0.67 1.22 1.57 0.46 1.21 1.38 0.66 1.23 1.57 0.46 1.21 1.38 0.67 1.22 1.57 0.46 1.21 1.38 0.66 1.23 1.57 0.46 1.21 1.38 0.67 1.22 1.57 0.46 1.21 1.38 0.66 1.23 1.57 0.46 1.21 1.38 0.66 1.23 1.57 0.46 1.21 1.38 0.67 1.22 1.57 0.46 1.21 1.38 0.66 1.23 1.57 0.46 1.21 1.38 0.67 1.22 1.57 0.46 1.21 1.38 0.66 1.23 1.57 0.46 1.21 1.38 0.67 1.22 1.57 0.46 1.21 1.38 0.66 1.23 1.57 0.46 1.21 1.38 0.67 1.22 1.57 0.46 1.21 1.38 0.67 1.22 1.57 0.46 1.21 1.38 0.66 1.23 1.57 0.46 1.21 1.38 0.67 1.22 1.57 0.46 1.21 1.38 0.66 1.23 1.57 0.46 1.21 1.38 0.67 1.22 1.57 0.46 1.21 1.38 0.66 1.23 1.57 0.46 1.21 1.38 0.67 1.22 1.57 0.46 1.21 1.38 0.66 1.23 1.57 0.46 1.21 1.38 0.67 1.22 1.57 0.46 1.21 1.38 0.67 1.22 1.57 0.46 1.21 1.38 0.66 1.23 1.57 0.46 1.21 1.38 0.67 1.22 1.57 0.46 1.21 1.38 0.66 1.23 1.57 0.46 1.21 1.38 0.67 1.22 1.57 0.46 1.21 1.38 0.66 1.23 1.57 0.46 1.21 1.38 0.67 1.22 1.57 0.46 1.21 1.38 0.67 1.22 1.57 0.46 1.21 1.38 0.66 1.23 1.57 0.46 1.21 1.38 0.67 1.22 1.57 0.46 1.21 1.38 0.66 1.23 1.57 0.46 1.21 1.38 0.67 1.22 1.57 0.46 1.21 1.38 0.66 1.23 1.57 0.46 1.21 1.38 0.67 1.22 1.57 0.46 1.21 1.38 0.66 1.23 1.57 0.46 1.21 1.38 0.67 1.22 1.57 0.46 1.21 1.38 0.67 1.22 1.57 0.46 1.21 1.38 0.66 1.23 1.57 0.46 1.21 1.38 0.67 1.22 1.57 0.46 1.21 1.38 0.66 1.23 1.57 0.46 1.21 1.38 0.67 1.22 1.57 0.46 1.21 1.38 0.66 1.23 1.57 0.46 1.21 1.38 0.67 1.22 1.57 0.46 1.21 1.38 0.66 1.23 1.57 0.46 1.21 1.38 0.67 1.22 1.57 0.46 1.21 1.38 0.67 1.22 1.57 0.46 1.21 1.38 0.66 1.23 1.57 0.46 1.21 1.38 0.67 1.22 1.57 0.46 1.21 1.38 0.66 1.23 1.57 0.46 1.21 1.38 0.67 1.22 1.57 0.46 1.21 1.38 0.66 1.23 1.57 0.46 1.21 1.38 0.67 1.22 1.57 0.46 1.21 1.38 0.67 1.22 1.57 0.46 1.21 1.38 0.66 1.23 1.57 0.46 1.21 1.38 0.67 1.22 1.57 0.46 1.21 1.38 0.66 1.23 1.57 0.46 1.21 1.38 0.67 1.22 1.57 0.46 1.21 1.38 0.66 1.23 1.57 0.46 1.21 1.38 0.67 1.22 1.57 0.46 1.21 1.38 0.66 1.23 1.57 0.46 1.21 1.38 0.67 1.22 1.57 0.46 1.21 1.38 0.67 1.22 1.57 0.46 1.21 1.38 0.66 1.23 1.57 0.46 1.21 1.38 0.67 1.22 1.57 0.46 1.21 1.38 0.66 1.23 1.57 0.46 1.21 1.38 0.67 1.22 1.57 0.46 1.21 1.38 0.66 1.23 1.57 0.46 1.21 1.38 0.67 1.22 1.57 0.46 1.21 1.38 0.66 1.23 1.57 0.46 1.21 1.38 0.67 1.22 1.57 0.46 1.21 1.38 0.67 1.22 1.57 0.46 1.21 1.38 0.66 1.23 1.57 0.46 1.21 1.38 0.67 1.22 1.57 0.46 1.21 1.38 0.66 1.23 1.57 0.46 1.21 1.38 0.67 1.22 1.57 0.46 1.21 1.38 0.66 1.23 1.57 0.46 1.21 1.38 0.67 1.22 1.57 0.46 1.21 1.38 0.67 1.22 1.57 0.46 1.21 1.38 0.66 1.23 1.57 0.46 1.21 1.38 0.67 1.22 1.57 0.46 1.21 1.38 0.66 1.23 1.57 0.46 1.21 1.38 0.67 1.22 1.57 0.46"
         style="fill:none;stroke:#0000ff;stroke-width:5.0025;stroke-linecap:butt;stroke-linejoin:bevel;stroke-miterlimit:10;stroke-dasharray:75, 45;stroke-dashoffset:0;stroke-opacity:1"
         id="path196" /><path
         d="M 3027.5,2272.5 H 3530 V 2805 h -502.5 z"
         style="fill:#ffffff;fill-opacity:1;fill-rule:nonzero;stroke:none"
         id="path198" /><g
         id="g200"
         transform="scale(10)"><text
           transform="matrix(1,0,0,-1,338,269.25)"
           style="font-variant:normal;font-weight:normal;font-size:9px;font-family:Helvetica;-inkscape-font-specification:Helvetica;writing-mode:lr-tb;fill:#000000;fill-opacity:1;fill-rule:nonzero;stroke:none"
           id="text204"><tspan
             x="0"
             y="0"
             id="tspan202">u</tspan></text><text
           transform="matrix(1,0,0,-1,343.25,264.75)"
           style="font-variant:normal;font-weight:normal;font-size:7.2px;font-family:Helvetica;-inkscape-font-specification:Helvetica;writing-mode:lr-tb;fill:#000000;fill-opacity:1;fill-rule:nonzero;stroke:none"
           id="text208"><tspan
             x="0"
             y="0"
             id="tspan206">w</tspan></text></g><path
         d="m 3057.5,2707.5 h 300"
         style="fill:none;stroke:#000000;stroke-width:5.0025;stroke-linecap:butt;stroke-linejoin:bevel;stroke-miterlimit:10;stroke-dasharray:7.5, 22.5;stroke-dashoffset:0;stroke-opacity:1"
         id="path210" /><g
         id="g212"
         transform="scale(10)"><text
           transform="matrix(1,0,0,-1,338,252)"
           style="font-variant:normal;font-weight:normal;font-size:9px;font-family:Helvetica;-inkscape-font-specification:Helvetica;writing-mode:lr-tb;fill:#000000;fill-opacity:1;fill-rule:nonzero;stroke:none"
           id="text216"><tspan
             x="0"
             y="0"
             id="tspan214">v</tspan></text><text
           transform="matrix(1,0,0,-1,342.5,247.5)"
           style="font-variant:normal;font-weight:normal;font-size:7.2px;font-family:Helvetica;-inkscape-font-specification:Helvetica;writing-mode:lr-tb;fill:#000000;fill-opacity:1;fill-rule:nonzero;stroke:none"
           id="text220"><tspan
             x="0"
             y="0"
             id="tspan218">w</tspan></text></g><path
         d="m 3057.5,2538.75 h 300"
         style="fill:none;stroke:#ff0000;stroke-width:5.0025;stroke-linecap:butt;stroke-linejoin:round;stroke-miterlimit:10;stroke-dasharray:none;stroke-opacity:1"
         id="path222" /><g
         id="g224"
         transform="scale(10)"><text
           transform="matrix(1,0,0,-1,338,235.5)"
           style="font-variant:normal;font-weight:normal;font-size:9px;font-family:Helvetica;-inkscape-font-specification:Helvetica;writing-mode:lr-tb;fill:#000000;fill-opacity:1;fill-rule:nonzero;stroke:none"
           id="text228"><tspan
             x="0"
             y="0"
             id="tspan226">w</tspan></text><text
           transform="matrix(1,0,0,-1,344.75,231)"
           style="font-variant:normal;font-weight:normal;font-size:7.2px;font-family:Helvetica;-inkscape-font-specification:Helvetica;writing-mode:lr-tb;fill:#000000;fill-opacity:1;fill-rule:nonzero;stroke:none"
           id="text232"><tspan
             x="0"
             y="0"
             id="tspan230">w</tspan></text></g><path
         d="m 3057.5,2370 h 300"
         style="fill:none;stroke:#0000ff;stroke-width:5.0025;stroke-linecap:butt;stroke-linejoin:bevel;stroke-miterlimit:10;stroke-dasharray:75, 45;stroke-dashoffset:0;stroke-opacity:1"
         id="path234" /><path
         d="M 3027.5,2272.5 H 3530 V 2805 h -502.5 z"
         style="fill:none;stroke:#262626;stroke-width:5.0025;stroke-linecap:butt;stroke-linejoin:miter;stroke-miterlimit:10;stroke-dasharray:none;stroke-opacity:1"
         id="path236" /></g></g></svg>
